<?xml version="1.0" encoding="UTF-8"?>
<svg width="106px" height="68px" viewBox="0 0 106 68" version="1.1" xmlns="http://www.w3.org/2000/svg" xmlns:xlink="http://www.w3.org/1999/xlink">
    <!-- Generator: Sketch 50.2 (55047) - http://www.bohemiancoding.com/sketch -->
    <title>Hands@3x</title>
    <desc>Created with Sketch.</desc>
    <defs></defs>
    <g id="Art-board" stroke="none" stroke-width="1" fill="none" fill-rule="evenodd">
        <g id="01.Main_Page_04-01" transform="translate(-670.000000, -3810.000000)" fill="#FF3B00">
            <g id="Shippers-Icons" transform="translate(0.000000, 3330.000000)">
                <g id="Icons" transform="translate(44.000000, 119.000000)">
                    <g id="Hands" transform="translate(626.000000, 361.000000)">
                        <path d="M27.8215854,8.88128696 L42.6455854,8.88128696 C45.0675122,6.71044081 47.3910732,4.93501773 48.871878,4.14682542 C56.7305122,0.051940808 69.0847317,7.25447927 75.0637805,11.00171 C77.6319268,4.19459465 97.6959024,4.09640235 103.034244,4.09640235 C104.416683,4.09640235 105.554537,5.2322485 105.554537,6.6122485 L105.554537,45.6795177 C105.554537,48.245787 103.13261,48.1475947 101.845878,48.245787 C98.4881463,48.3944023 91.9135854,48.7394023 88.0108537,46.0271716 C87.4658537,46.1731331 86.873,46.3721716 86.2322927,46.5181331 C85.094439,54.3124793 81.784561,56.7301331 77.5840732,56.1887485 C76.0527561,60.6286331 72.9396098,61.61321 69.3319756,60.6286331 C67.1067805,63.9326716 64.5386341,65.116287 61.8694634,64.9676716 C48.2790244,73.5024408 34.1462439,57.7173639 24.559561,47.0621716 C22.2865122,44.5463254 20.3112195,42.3754793 18.8782683,41.0432485 C18.2854146,41.932287 17.7404146,42.622287 17.2459268,43.01771 C14.4305366,45.2363254 6.86965854,44.6445177 2.52029268,44.6445177 C1.13785366,44.6445177 0,43.5113254 0,42.1286716 L0,2.46959465 C0,1.03917158 1.08734146,-0.0462514997 2.71702439,0.00151773111 C8.79709756,0.0997100388 27.1782195,-0.147097654 27.8215854,8.88128696 M37.6555122,13.8625562 L27.4759756,13.8625562 C26.487,20.4255177 23.8683415,29.995287 21.1513171,36.4069793 C28.6111707,42.3250562 42.4993659,63.7840562 55.0503171,62.2554408 C51.7882927,59.9359793 48.871878,56.5337485 46.6998537,54.0179023 C45.413122,52.5370562 43.0922195,50.5652485 45.2163902,48.590787 C47.3910732,46.5685562 49.3185122,49.3816331 50.5042195,50.71121 C53.519,54.214287 60.4365122,63.0940562 64.7353659,58.3091716 C60.782122,55.6951331 56.9272439,51.6506716 54.6541951,49.280787 C53.370122,47.900787 51.1449268,46.2739793 52.9261463,44.2013254 C54.9519512,41.932287 57.0256098,44.5463254 58.2618293,45.8281331 C61.2260976,48.8880177 67.0589268,55.0529023 70.9138049,55.8437485 C71.7033902,56.0401331 72.445122,55.64471 72.8890976,54.3629023 C67.6012683,51.0588639 62.6590488,44.7931331 59.4980488,41.0432485 C57.3712195,38.4796331 61.1782439,35.2711331 63.3024146,37.7869793 C66.7133171,41.8340947 73.6786829,50.6634408 78.1769268,51.2552485 C79.312122,51.4038639 80.3010976,50.4166331 80.9444634,47.555787 C72.9396098,42.967287 63.0551707,30.7330562 54.3085854,25.80221 C53.122878,25.1095562 47.7845366,29.1566716 47.2421951,29.5494408 C41.3615122,34.1883639 31.7243171,32.11571 32.2188049,23.4323254 C32.3676829,20.818287 34.6912439,17.2674408 37.6555122,13.8625562 M82.0796585,42.3754793 L84.945561,41.6854793 C82.8719024,37.0969793 77.5840732,23.9259408 75.7071463,17.2674408 C71.5545122,15.194787 58.1129512,4.93501773 51.1449268,8.58405619 C48.3295366,10.0649023 32.3198293,23.7773254 38.6444878,26.6408254 C43.8312927,28.9576331 50.3553415,17.7610562 56.7783659,21.4605177 C65.7721951,26.5399793 74.6676585,37.39421 82.0796585,42.3754793 M4.99007317,4.98544081 L4.99007317,39.7110177 C8.30260976,39.7614408 13.1943171,39.8596331 14.1327805,39.0714408 C16.9986829,36.8501716 23.6716098,13.0743639 22.8315122,9.17851773 C22.0897805,5.52682542 11.2190244,5.03321004 4.99007317,4.98544081 M82.6725122,22.4477485 L90.2333902,41.1918639 C91.4190976,43.5113254 97.153561,43.4609023 100.561805,43.312287 L100.561805,9.17851773 C95.5717317,9.27671004 87.7636098,9.71990235 82.9702683,11.1503254 C81.0933415,11.7421331 79.8066098,12.2861716 79.8066098,12.6789408 C79.461,14.7011716 80.4499756,16.3784023 82.6725122,22.4477485" id="Fill-1"></path>
                    </g>
                </g>
            </g>
        </g>
    </g>
</svg>