<?xml version="1.0" encoding="UTF-8"?>
<svg width="63px" height="68px" viewBox="0 0 63 68" version="1.1" xmlns="http://www.w3.org/2000/svg" xmlns:xlink="http://www.w3.org/1999/xlink">
    <!-- Generator: Sketch 50.2 (55047) - http://www.bohemiancoding.com/sketch -->
    <title>shell@3x</title>
    <desc>Created with Sketch.</desc>
    <defs></defs>
    <g id="Art-board" stroke="none" stroke-width="1" fill="none" fill-rule="evenodd">
        <g id="01.Main_Page_04-01" transform="translate(-231.000000, -3455.000000)" fill="#FF3B00">
            <g id="Shippers-Icons" transform="translate(0.000000, 3330.000000)">
                <g id="Icons" transform="translate(44.000000, 119.000000)">
                    <g id="shell" transform="translate(187.000000, 6.000000)">
                        <path d="M50.0021333,35.4378692 C49.9168,33.4554462 49.9408,31.4677154 49.9594667,29.5410231 C49.9701333,28.6758692 49.9781333,27.8107154 49.9781333,26.9482154 L49.9808,24.7057154 L49.9808,24.0741 C49.9754667,21.6697154 49.9728,19.1857154 49.9968,16.7256 C46.6021333,15.9825231 43.1781333,15.2076 39.8608,14.4592154 C37.1514667,13.8461769 34.3514667,13.2172154 31.5994667,12.6068308 C31.4048,12.5617154 31.1434667,12.5617154 30.9674667,12.5988692 C28.2634667,13.1986385 25.5141333,13.8196385 22.8528,14.4194077 C19.4768,15.1810615 15.9888,15.9666 12.5381333,16.7229462 L12.5488,18.7823308 C12.5808,24.3209077 12.6154667,30.0479077 12.5274667,35.6899846 C12.4634667,39.6336 13.8261333,43.0676769 16.6821333,46.1965615 C20.1754667,50.0154462 24.8154667,53.0063308 31.2634667,55.5911769 C36.7514667,53.4309462 41.1034667,50.7930231 44.5594667,47.5287923 C48.4128,43.8877154 50.1941333,39.9308308 50.0021333,35.4378692 M43.5008,27.4152923 C41.8394667,29.3340231 40.1754667,31.2501 38.5168,33.1741385 C35.8234667,36.3056769 33.1408,39.4451769 30.4394667,42.5740615 C28.9194667,44.3335615 27.6981333,44.3149846 26.2528,42.5316 C23.8634667,39.5831769 21.4714667,36.6347538 19.0874667,33.6863308 C18.2794667,32.6884846 18.2901333,31.6587923 19.0954667,30.9847154 C19.9008,30.3106385 21.0581333,30.3743308 22.0848,31.1757923 C23.8394667,32.5451769 25.5808,33.9278308 27.3301333,35.2998692 C27.6128,35.5201385 27.9141333,35.7191769 28.4901333,36.1305231 C28.7168,35.8014462 28.8661333,35.4591 29.1301333,35.2176 C32.8154667,31.8737538 36.5088,28.5352154 40.2261333,25.2205615 C40.6261333,24.8622923 41.1461333,24.5226 41.6768,24.3925615 C42.5541333,24.1802538 43.3274667,24.4934077 43.7834667,25.2391385 C44.2554667,26.0087538 44.0821333,26.7412154 43.5008,27.4152923" id="Fill-15"></path>
                        <path d="M62.5184,35.3123423 C62.4677333,34.0995346 62.4517333,32.8575346 62.4544,31.6208423 L62.5050667,31.6208423 L62.5024,22.3589192 C62.4944,19.3282269 62.4890667,16.1940346 62.5237333,13.13415 C62.5717333,9.39753462 60.2090667,6.64284231 56.2090667,5.76972692 C52.3104,4.91784231 48.3344,4.02084231 44.4917333,3.15568846 L42.7770667,2.76822692 C39.8704,2.11272692 36.8650667,1.43334231 33.9050667,0.777842308 C32.2064,0.400996154 30.3450667,0.398342308 28.6757333,0.769880769 C25.4224,1.48907308 22.1850667,2.21888077 19.1717333,2.90091923 C15.4410667,3.74218846 10.7957333,4.79045769 6.3744,5.75380385 C2.37173333,6.62161154 -0.00693333333,9.40284231 0.0117333333,13.1925346 L0.0304,16.4886115 C0.0677333333,22.8313038 0.105066667,29.3889577 0.00373333333,35.8112654 C-0.100266667,42.4087269 2.2544,48.3851885 6.99573333,53.5761115 C12.1130667,59.1730731 18.7504,63.4590346 27.8864,67.0629577 C28.8970667,67.4583808 30.0490667,67.6680346 31.2224,67.6680346 C32.4250667,67.6680346 33.6330667,67.4477654 34.7104,67.0311115 C42.4197333,64.0402269 48.5904,60.29565 53.5744,55.5903808 C59.8277333,49.6802654 62.8384,42.8572269 62.5184,35.3123423 M48.2944,51.3787269 C43.8597333,55.56915 38.2810667,58.9740346 31.2650667,61.7685346 C23.0090667,58.4220346 17.0490667,54.5606885 12.5584,49.6510731 C8.89706667,45.6464192 7.1584,41.2489962 7.2384,36.2013808 C7.35573333,28.6963038 7.3104,21.0824192 7.26773333,13.7179962 L7.2544,11.6214577 C11.6064,10.6687269 15.9904,9.67884231 20.2437333,8.72080385 C23.7904,7.91934231 27.4570667,7.09134231 31.0704,6.29253462 C31.1557333,6.27395769 31.3637333,6.26865 31.5130667,6.30315 C35.0917333,7.09665 38.7344,7.91668846 42.2544,8.71284231 C46.5130667,9.67353462 50.8997333,10.6660731 55.2730667,11.6267654 C55.2490667,14.6733808 55.2544,17.7385731 55.2597333,20.7161885 L55.2597333,20.8860346 L55.2570667,24.6014192 C55.2570667,25.7478808 55.2464,26.8943423 55.2330667,28.0408038 C55.2037333,30.5991115 55.1770667,33.2449962 55.2864,35.8882269 C55.5317333,41.6364577 53.2437333,46.70265 48.2944,51.3787269" id="Fill-17"></path>
                    </g>
                </g>
            </g>
        </g>
    </g>
</svg>