<?xml version="1.0" encoding="UTF-8"?>
<svg width="61px" height="68px" viewBox="0 0 61 68" version="1.1" xmlns="http://www.w3.org/2000/svg" xmlns:xlink="http://www.w3.org/1999/xlink">
    <!-- Generator: Sketch 50.2 (55047) - http://www.bohemiancoding.com/sketch -->
    <title>Automatetd@3x</title>
    <desc>Created with Sketch.</desc>
    <defs>
        <polygon id="path-1" points="0 0.000371667774 53.5716247 0.000371667774 53.5716247 63.9264855 0 63.9264855"></polygon>
        <polygon id="path-3" points="0.640378788 0.000224742857 24.8825758 0.000224742857 24.8825758 23.9727962 0.640378788 23.9727962"></polygon>
    </defs>
    <g id="Art-board" stroke="none" stroke-width="1" fill="none" fill-rule="evenodd">
        <g id="01.Main_Page_04-01" transform="translate(-232.000000, -5584.000000)">
            <g id="Carriers-Icons" transform="translate(0.000000, 5110.000000)">
                <g id="Icons-Carrier" transform="translate(44.000000, 119.862857)">
                    <g id="Automatetd" transform="translate(188.000000, 354.594286)">
                        <g id="Group-3" transform="translate(0.000000, 2.996571)">
                            <mask id="mask-2" fill="white">
                                <use xlink:href="#path-1"></use>
                            </mask>
                            <g id="Clip-2"></g>
                            <path d="M16.3234603,26.4289237 L12.1565836,30.6161329 L10.1800356,28.6299403 L8.28485753,30.532136 L12.1536247,34.4197809 L18.2134603,28.3281461 L16.3234603,26.4289237 Z M10.8480082,20.1744984 L13.2491589,17.7616313 L15.6503096,20.1744984 L17.5454877,18.2723028 L15.144337,15.8594356 L17.5454877,13.4465684 L15.6503096,11.5451161 L13.2491589,13.9579833 L10.8509671,11.5451161 L8.95504932,13.4465684 L11.3562,15.8594356 L8.95504932,18.2723028 L10.8480082,20.1744984 Z M10.1800356,43.4475911 L8.28485753,45.3520168 L12.1536247,49.2396617 L18.2134603,43.1510002 L16.3175425,41.2488046 L12.1506658,45.4360137 L10.1800356,43.4475911 Z M48.5503644,27.8026078 L48.5503644,58.8807238 L5.02266575,58.8807238 L5.02266575,5.0468767 L37.5646932,5.0468767 L42.4912685,2.6629996 L43.7658164,0.000371667774 L3.34866575,0.000371667774 C1.50526849,0.000371667774 -7.39726027e-05,1.51305951 -7.39726027e-05,3.36545169 L-7.39726027e-05,60.5614054 C-7.39726027e-05,62.4108243 1.50526849,63.9264855 3.34866575,63.9264855 L50.2228849,63.9264855 C52.0633233,63.9264855 53.5716247,62.4108243 53.5716247,60.5614054 L53.5716247,17.3580001 L48.5503644,27.8026078 Z M20.7618164,47.102572 L40.8498164,47.102572 L40.8498164,43.737492 L20.7618164,43.7404653 L20.7618164,47.102572 Z M20.7618164,32.3005312 L40.8498164,32.3005312 L40.8498164,28.9354512 L20.7618164,28.9354512 L20.7618164,32.3005312 Z M20.7618164,17.4977471 L40.8498164,17.4977471 L40.8498164,14.1326671 L20.7618164,14.1326671 L20.7618164,17.4977471 Z" id="Fill-1" fill="#FF3B00" mask="url(#mask-2)"></path>
                        </g>
                        <g id="Group-6" transform="translate(36.000000, 0.000000)">
                            <mask id="mask-4" fill="white">
                                <use xlink:href="#path-3"></use>
                            </mask>
                            <g id="Clip-5"></g>
                            <polygon id="Fill-4" fill="#FF3B00" mask="url(#mask-4)" points="12.7608333 0.000224742857 8.83128788 8.0857236 0.640378788 11.9865105 8.88810606 15.7644379 12.7615909 23.9727962 16.6532576 15.870067 24.882803 11.9865105 16.7585606 8.0857236"></polygon>
                        </g>
                    </g>
                </g>
            </g>
        </g>
    </g>
</svg>