<?xml version="1.0" encoding="UTF-8"?>
<svg width="53px" height="66px" viewBox="0 0 53 66" version="1.1" xmlns="http://www.w3.org/2000/svg" xmlns:xlink="http://www.w3.org/1999/xlink">
    <!-- Generator: Sketch 50.2 (55047) - http://www.bohemiancoding.com/sketch -->
    <title>Cal@3x</title>
    <desc>Created with Sketch.</desc>
    <defs></defs>
    <g id="Art-board" stroke="none" stroke-width="1" fill="none" fill-rule="evenodd">
        <g id="01.Main_Page_04-01" transform="translate(-1156.000000, -3810.000000)" fill="#FF3B00">
            <g id="Shippers-Icons" transform="translate(0.000000, 3330.000000)">
                <g id="Icons" transform="translate(44.000000, 119.000000)">
                    <g id="Cal" transform="translate(1112.000000, 361.000000)">
                        <path d="M48.8133333,0 L3.616,0 C1.616,0 0,1.57344 0,3.51384 L0,61.49616 C0,63.43656 1.61866667,65.01 3.616,65.01 L48.8133333,65.01 C50.8133333,65.01 52.4293333,63.43656 52.4293333,61.49616 L52.4293333,3.51384 C52.4293333,1.57344 50.8106667,0 48.8133333,0 Z M17.7173333,54.46848 C17.7173333,55.43736 16.9066667,56.22408 15.9066667,56.22408 L10.4853333,56.22408 C9.48533333,56.22408 8.67466667,55.43736 8.67466667,54.46848 L8.67466667,50.95464 C8.67466667,49.98312 9.48533333,49.1964 10.4853333,49.1964 L15.9066667,49.1964 C16.9066667,49.1964 17.7173333,49.98312 17.7173333,50.95464 L17.7173333,54.46848 Z M17.7173333,43.92696 C17.7173333,44.89584 16.9066667,45.68256 15.9066667,45.68256 L10.4853333,45.68256 C9.48533333,45.68256 8.67466667,44.89584 8.67466667,43.92696 L8.67466667,40.41312 C8.67466667,39.4416 9.48533333,38.65488 10.4853333,38.65488 L15.9066667,38.65488 C16.9066667,38.65488 17.7173333,39.4416 17.7173333,40.41312 L17.7173333,43.92696 Z M17.7173333,33.3828 C17.7173333,34.35432 16.9066667,35.14104 15.9066667,35.14104 L10.4853333,35.14104 C9.48533333,35.14104 8.67466667,34.35432 8.67466667,33.3828 L8.67466667,29.86896 C8.67466667,28.90008 9.48533333,28.11336 10.4853333,28.11336 L15.9066667,28.11336 C16.9066667,28.11336 17.7173333,28.90008 17.7173333,29.86896 L17.7173333,33.3828 Z M30.7333333,54.46848 C30.7333333,55.43736 29.9253333,56.22408 28.9253333,56.22408 L23.5013333,56.22408 C22.504,56.22408 21.6933333,55.43736 21.6933333,54.46848 L21.6933333,50.95464 C21.6933333,49.98312 22.504,49.1964 23.5013333,49.1964 L28.9253333,49.1964 C29.9253333,49.1964 30.7333333,49.98312 30.7333333,50.95464 L30.7333333,54.46848 Z M30.7333333,43.92696 C30.7333333,44.89584 29.9253333,45.68256 28.9253333,45.68256 L23.5013333,45.68256 C22.504,45.68256 21.6933333,44.89584 21.6933333,43.92696 L21.6933333,40.41312 C21.6933333,39.4416 22.504,38.65488 23.5013333,38.65488 L28.9253333,38.65488 C29.9253333,38.65488 30.7333333,39.4416 30.7333333,40.41312 L30.7333333,43.92696 Z M30.7333333,33.3828 C30.7333333,34.35432 29.9253333,35.14104 28.9253333,35.14104 L23.5013333,35.14104 C22.504,35.14104 21.6933333,34.35432 21.6933333,33.3828 L21.6933333,29.86896 C21.6933333,28.90008 22.504,28.11336 23.5013333,28.11336 L28.9253333,28.11336 C29.9253333,28.11336 30.7333333,28.90008 30.7333333,29.86896 L30.7333333,33.3828 Z M43.752,54.46848 C43.752,55.43736 42.9413333,56.22408 41.944,56.22408 L36.52,56.22408 C35.52,56.22408 34.712,55.43736 34.712,54.46848 L34.712,40.41048 C34.712,39.4416 35.52,38.65488 36.52,38.65488 L41.944,38.65488 C42.9413333,38.65488 43.752,39.4416 43.752,40.41048 L43.752,54.46848 Z M43.752,33.3828 C43.752,34.35432 42.9413333,35.14104 41.944,35.14104 L36.52,35.14104 C35.52,35.14104 34.712,34.35432 34.712,33.3828 L34.712,29.86896 C34.712,28.90008 35.52,28.11336 36.52,28.11336 L41.944,28.11336 C42.9413333,28.11336 43.752,28.90008 43.752,29.86896 L43.752,33.3828 Z M45.1973333,18.27408 C45.1973333,19.8264 43.9013333,21.08568 42.304,21.08568 L10.1226667,21.08568 C8.52533333,21.08568 7.22933333,19.8264 7.22933333,18.27408 L7.22933333,11.59752 C7.22933333,10.0452 8.52533333,8.78592 10.1226667,8.78592 L42.304,8.78592 C43.9013333,8.78592 45.2,10.04256 45.2,11.59752 L45.2,18.27408 L45.1973333,18.27408 Z" id="Fill-5"></path>
                    </g>
                </g>
            </g>
        </g>
    </g>
</svg>