<?xml version="1.0" encoding="UTF-8"?>
<svg width="67px" height="71px" viewBox="0 0 67 71" version="1.1" xmlns="http://www.w3.org/2000/svg" xmlns:xlink="http://www.w3.org/1999/xlink">
    <!-- Generator: Sketch 50.2 (55047) - http://www.bohemiancoding.com/sketch -->
    <title>Pricing</title>
    <desc>Created with Sketch.</desc>
    <defs>
        <polygon id="path-1" points="0 0.599051973 66.6238682 0.599051973 66.6238682 27.968 0 27.968"></polygon>
    </defs>
    <g id="Art-board" stroke="none" stroke-width="1" fill="none" fill-rule="evenodd">
        <g id="01.Main_Page_04-01" transform="translate(-229.000000, -5230.000000)">
            <g id="Carriers-Icons" transform="translate(0.000000, 5110.000000)">
                <g id="Icons-Carrier" transform="translate(44.000000, 119.862857)">
                    <g id="Pricing" transform="translate(185.000000, 0.998857)">
                        <g id="Group-3" transform="translate(0.000000, 41.952000)">
                            <mask id="mask-2" fill="white">
                                <use xlink:href="#path-1"></use>
                            </mask>
                            <g id="Clip-2"></g>
                            <path d="M60.3049133,6.8198496 C58.4438022,7.4807776 55.3900911,8.2918496 52.0393467,9.0278496 C50.8474911,10.9429216 48.6893467,12.5613856 45.2641578,13.2223136 C44.44378,13.3687776 43.5511911,13.4438496 42.5826689,13.4438496 C40.2011911,13.5189216 37.4474911,13.2973856 34.3185911,13.0007776 C34.0945133,13.0007776 33.8704356,13.0007776 33.6493356,12.9264416 C32.9048911,12.8513696 32.23638,12.2647776 32.1604467,11.5287776 C32.0852578,10.5719776 32.9048911,9.8359776 33.7982244,9.9103136 C34.0215578,9.9103136 34.3185911,9.9853856 34.5426689,9.9853856 C38.56118,10.3533856 42.2826578,10.6463136 44.6678578,10.2069216 C49.0593356,9.3958496 50.3271244,6.7477216 50.0271133,4.5397216 C49.80378,2.6997216 48.4630356,1.0069216 46.2297022,1.1533856 C43.10378,1.3749216 39.4537689,1.1533856 35.9556244,0.8597216 C31.9371133,0.5667936 27.7667356,0.4917216 24.7889578,0.7853856 C21.5148911,1.1533856 14.8148911,3.5829216 8.93154667,7.4837216 C6.02970222,9.3987936 2.82710222,11.7532576 0.890802222,13.1509216 C-0.07772,13.8869216 -0.301797778,15.2117216 0.442646667,16.1692576 L9.00375778,27.1349216 C9.74820222,28.0917216 11.0889467,28.2389216 12.0574689,27.5029216 L15.1833911,25.0733856 C15.9278356,24.4838496 16.8963578,24.3373856 17.7889467,24.6303136 C23.5204244,26.4703136 29.7000578,27.6493856 33.7185689,27.8679776 C42.5849022,28.4567776 59.4860244,18.1527776 64.3249133,14.8407776 C69.1638022,11.5287776 65.66268,4.9047776 60.3034244,6.8198496 L60.3049133,6.8198496 Z" id="Fill-1" fill="#FF3B00" mask="url(#mask-2)"></path>
                        </g>
                        <path d="M37.3823939,9.54476239 L37.3823939,7.14034512 C37.3823939,6.91410892 37.6089114,6.68787272 37.8354289,6.68787272 L40.1690856,6.68787272 C40.3956031,6.68787272 40.6221206,6.91410892 40.6221206,7.14034512 L40.6221206,9.47110409 C43.0295272,9.62142715 44.9109015,11.426807 45.137419,13.8312243 C45.137419,14.1311188 44.9109015,14.3566034 44.6843841,14.3566034 L42.3507273,14.3566034 C42.1242099,14.3566034 41.9744525,14.2070319 41.8976924,13.9807957 C41.747935,13.2291805 41.0683826,12.7038014 40.3158328,12.7038014 L38.2847011,12.7038014 C37.0798689,12.7038014 35.9510443,13.6049881 35.8005344,14.8090758 C35.650777,16.1627349 36.7796016,17.3630645 38.1349437,17.3630645 L39.8665606,17.3630645 C43.1032771,17.3630645 45.7372012,20.144041 45.4339236,23.4526515 C45.2074061,26.0066402 43.1002669,27.9623431 40.6191104,28.3381507 L40.6191104,30.742568 C40.6191104,30.9688042 40.3925929,31.1950404 40.1660754,31.1950404 L37.8324187,31.1950404 C37.6059012,31.1950404 37.3793837,30.9688042 37.3793837,30.742568 L37.3793837,28.411809 C34.9719771,28.261486 33.0898502,26.4561061 32.8640853,24.0516888 C32.8640853,23.7517943 33.0898502,23.5992164 33.3163677,23.5992164 L35.650777,23.5992164 C35.8772944,23.5992164 36.0270518,23.7487879 36.1038119,23.9750241 C36.2535693,24.7266393 36.9323692,25.2520184 37.6849189,25.2520184 L39.7168032,25.2520184 C40.9216354,25.2520184 42.05046,24.3508317 42.2002174,23.1474956 C42.3507273,21.7938365 41.2219027,20.5927553 39.8665606,20.5927553 L38.3614611,20.5927553 C35.4272697,20.5927553 32.8670955,18.4874809 32.5668281,15.5576846 C32.2643031,12.5512235 34.4482025,9.92057003 37.3823939,9.54476239 M39.0372508,37.9565714 C49.4961871,37.9565714 57.9999992,29.4625672 57.9999992,19.0166181 C58.0030094,8.56766253 49.4991973,0 39.0372508,0 C28.5783145,0 20,8.49400423 20,18.9399533 C20,29.3889089 28.5015544,37.9565714 39.0372508,37.9565714" id="Fill-4" fill="#FF3B00"></path>
                    </g>
                </g>
            </g>
        </g>
    </g>
</svg>