<?xml version="1.0" encoding="UTF-8"?>
<svg width="73px" height="67px" viewBox="0 0 73 67" version="1.1" xmlns="http://www.w3.org/2000/svg" xmlns:xlink="http://www.w3.org/1999/xlink">
    <!-- Generator: Sketch 50.2 (55047) - http://www.bohemiancoding.com/sketch -->
    <title>User@3x</title>
    <desc>Created with Sketch.</desc>
    <defs></defs>
    <g id="Art-board" stroke="none" stroke-width="1" fill="none" fill-rule="evenodd">
        <g id="01.Main_Page_04-01" transform="translate(-1146.000000, -5565.000000)" fill="#FF3B00">
            <g id="Carriers-Icons" transform="translate(0.000000, 5110.000000)">
                <g id="Icons-Carrier" transform="translate(44.000000, 119.862857)">
                    <g id="User" transform="translate(1102.000000, 335.616000)">
                        <path d="M66.3145714,0 L6.04685714,0 C2.71157143,0 0,2.72238514 0,6.06771138 L0,60.4491439 C0,63.7944702 2.71157143,66.5142045 6.04685714,66.5142045 L66.3145714,66.5142045 C69.6498571,66.5142045 72.3640714,63.7944702 72.3640714,60.4491439 L72.3640714,6.06771138 C72.3640714,2.72238514 69.6472143,0 66.3145714,0 Z M18.6823571,61.3159598 L6.04685714,61.3159598 C5.57114286,61.3159598 5.18264286,60.9262903 5.18264286,60.4491439 L5.18264286,22.0998295 L18.6823571,22.0998295 L18.6823571,61.3159598 Z M67.1787857,60.4491439 C67.1787857,60.9262903 66.7902857,61.3159598 66.3145714,61.3159598 L23.8676429,61.3159598 L23.8676429,22.0998295 L67.1787857,22.0998295 L67.1787857,60.4491439 Z M67.1787857,16.8989341 L5.18264286,16.8989341 L5.18264286,6.06771138 C5.18264286,5.59056501 5.57114286,5.20089547 6.04685714,5.20089547 L66.3145714,5.20089547 C66.7902857,5.20089547 67.1787857,5.59056501 67.1787857,6.06771138 L67.1787857,16.8989341 Z M61.6710714,7.50975376 C59.7655714,7.50975376 58.2142143,9.0657811 58.2142143,10.9770174 C58.2142143,12.8882537 59.7655714,14.4442811 61.6710714,14.4442811 C63.5765714,14.4442811 65.1279286,12.8882537 65.1279286,10.9770174 C65.1279286,9.0657811 63.5765714,7.50975376 61.6710714,7.50975376 Z M53.0315714,7.50975376 C51.1234286,7.50975376 49.5747143,9.0657811 49.5747143,10.9770174 C49.5747143,12.8882537 51.1234286,14.4442811 53.0315714,14.4442811 C54.9370714,14.4442811 56.4857857,12.8882537 56.4857857,10.9770174 C56.4857857,9.0657811 54.9370714,7.50975376 53.0315714,7.50975376 Z M44.3894286,7.50975376 C42.4839286,7.50975376 40.9352143,9.0657811 40.9352143,10.9770174 C40.9352143,12.8882537 42.4839286,14.4442811 44.3894286,14.4442811 C46.2975714,14.4442811 47.8462857,12.8882537 47.8462857,10.9770174 C47.8462857,9.0657811 46.2975714,7.50975376 44.3894286,7.50975376 Z" id="Fill-3"></path>
                    </g>
                </g>
            </g>
        </g>
    </g>
</svg>