<?xml version="1.0" encoding="UTF-8"?>
<svg width="77px" height="67px" viewBox="0 0 77 67" version="1.1" xmlns="http://www.w3.org/2000/svg" xmlns:xlink="http://www.w3.org/1999/xlink">
    <!-- Generator: Sketch 50.2 (55047) - http://www.bohemiancoding.com/sketch -->
    <title>magnifier@3x</title>
    <desc>Created with Sketch.</desc>
    <defs></defs>
    <g id="Art-board" stroke="none" stroke-width="1" fill="none" fill-rule="evenodd">
        <g id="01.Main_Page_04-01" transform="translate(-224.000000, -3809.000000)">
            <g id="Shippers-Icons" transform="translate(0.000000, 3330.000000)">
                <g id="Icons" transform="translate(44.000000, 119.000000)">
                    <g id="magnifier" transform="translate(180.000000, 360.000000)">
                        <path d="M42.4410724,54.4664154 C40.3142793,54.4664154 38.5884172,56.2444923 38.5884172,58.4339154 L38.5884172,58.5613 L8.24776207,58.5613 L8.24776207,8.36114615 L23.2574517,8.36114615 C25.3842448,8.36114615 27.1101069,6.58306923 27.1101069,4.39099231 C27.1101069,2.20156923 25.3842448,0.423492308 23.2574517,0.423492308 L4.3951069,0.423492308 C2.26831379,0.423492308 0.542451724,2.20156923 0.542451724,4.39099231 L0.542451724,62.5288 C0.542451724,64.7208769 2.26831379,66.4989538 4.3951069,66.4989538 L42.4410724,66.4989538 C44.5678655,66.4989538 46.2937276,64.7208769 46.2937276,62.5288 L46.2937276,58.4339154 C46.2937276,56.2444923 44.5678655,54.4664154 42.4410724,54.4664154" id="Fill-7" fill="#EF4E23"></path>
                        <path d="M42.4410724,54.4664154 C40.3142793,54.4664154 38.5884172,56.2444923 38.5884172,58.4339154 L38.5884172,58.5613 L8.24776207,58.5613 L8.24776207,8.36114615 L23.2574517,8.36114615 C25.3842448,8.36114615 27.1101069,6.58306923 27.1101069,4.39099231 C27.1101069,2.20156923 25.3842448,0.423492308 23.2574517,0.423492308 L4.3951069,0.423492308 C2.26831379,0.423492308 0.542451724,2.20156923 0.542451724,4.39099231 L0.542451724,62.5288 C0.542451724,64.7208769 2.26831379,66.4989538 4.3951069,66.4989538 L42.4410724,66.4989538 C44.5678655,66.4989538 46.2937276,64.7208769 46.2937276,62.5288 L46.2937276,58.4339154 C46.2937276,56.2444923 44.5678655,54.4664154 42.4410724,54.4664154 Z" id="Stroke-9" stroke="#FF3B00" stroke-width="0.5"></path>
                        <path d="M75.6185138,54.4587192 L65.149169,43.6841038 C63.6728931,42.16345 61.3044793,42.1448731 59.7936862,43.6071423 C63.8003414,39.43795 66.2802724,33.7082962 66.2802724,27.3947962 C66.2802724,14.6749115 56.2331,4.32756538 43.8865483,4.32756538 C31.5373414,4.32756538 21.4928241,14.6749115 21.4928241,27.3947962 C21.4928241,40.1120269 31.5373414,50.4593731 43.8865483,50.4593731 C50.0173414,50.4593731 55.5799276,47.9063731 59.6290655,43.7796423 C58.2085483,45.33745 58.2271345,47.7789885 59.7034103,49.2969885 L70.1727552,60.0716038 C70.924169,60.8465269 71.9092379,61.2339885 72.8943069,61.2339885 C73.882031,61.2339885 74.8697552,60.8465269 75.621169,60.06895 C77.1239966,58.5191038 77.1239966,56.0085654 75.6185138,54.4587192 M43.8865483,42.5217192 C35.7856172,42.5217192 29.1981345,35.7358346 29.1981345,27.3947962 C29.1981345,19.0511038 35.7856172,12.2652192 43.8865483,12.2652192 C51.9848241,12.2652192 58.5749621,19.0511038 58.5749621,27.3947962 C58.5749621,35.7358346 51.9848241,42.5217192 43.8865483,42.5217192" id="Fill-11" fill="#EF4E23"></path>
                        <path d="M75.6185138,54.4587192 L65.149169,43.6841038 C63.6728931,42.16345 61.3044793,42.1448731 59.7936862,43.6071423 C63.8003414,39.43795 66.2802724,33.7082962 66.2802724,27.3947962 C66.2802724,14.6749115 56.2331,4.32756538 43.8865483,4.32756538 C31.5373414,4.32756538 21.4928241,14.6749115 21.4928241,27.3947962 C21.4928241,40.1120269 31.5373414,50.4593731 43.8865483,50.4593731 C50.0173414,50.4593731 55.5799276,47.9063731 59.6290655,43.7796423 C58.2085483,45.33745 58.2271345,47.7789885 59.7034103,49.2969885 L70.1727552,60.0716038 C70.924169,60.8465269 71.9092379,61.2339885 72.8943069,61.2339885 C73.882031,61.2339885 74.8697552,60.8465269 75.621169,60.06895 C77.1239966,58.5191038 77.1239966,56.0085654 75.6185138,54.4587192 Z M43.8865483,42.5217192 C35.7856172,42.5217192 29.1981345,35.7358346 29.1981345,27.3947962 C29.1981345,19.0511038 35.7856172,12.2652192 43.8865483,12.2652192 C51.9848241,12.2652192 58.5749621,19.0511038 58.5749621,27.3947962 C58.5749621,35.7358346 51.9848241,42.5217192 43.8865483,42.5217192 Z" id="Stroke-13" stroke="#FF3B00" stroke-width="0.5"></path>
                    </g>
                </g>
            </g>
        </g>
    </g>
</svg>