<?xml version="1.0" encoding="UTF-8"?>
<svg width="73px" height="67px" viewBox="0 0 73 67" version="1.1" xmlns="http://www.w3.org/2000/svg" xmlns:xlink="http://www.w3.org/1999/xlink">
    <!-- Generator: Sketch 50.2 (55047) - http://www.bohemiancoding.com/sketch -->
    <title>Group 12@1x</title>
    <desc>Created with Sketch.</desc>
    <defs></defs>
    <g id="Art-board" stroke="none" stroke-width="1" fill="none" fill-rule="evenodd">
        <g id="01.Main_Page_04-01" transform="translate(-1146.000000, -3455.000000)" fill="#FF3B00">
            <g id="Shippers-Icons" transform="translate(0.000000, 3330.000000)">
                <g id="Icons" transform="translate(44.000000, 119.000000)">
                    <g id="Group-12" transform="translate(1102.000000, 6.000000)">
                        <path d="M66.3145714,0 L6.04685714,0 C2.71157143,0 0,2.7255 0,6.07465385 L0,60.5183077 C0,63.8674615 2.71157143,66.5903077 6.04685714,66.5903077 L66.3145714,66.5903077 C69.6498571,66.5903077 72.3640714,63.8674615 72.3640714,60.5183077 L72.3640714,6.07465385 C72.3640714,2.7255 69.6472143,0 66.3145714,0 Z M18.6823571,61.3861154 L6.04685714,61.3861154 C5.57114286,61.3861154 5.18264286,60.996 5.18264286,60.5183077 L5.18264286,22.1251154 L18.6823571,22.1251154 L18.6823571,61.3861154 Z M67.1787857,60.5183077 C67.1787857,60.996 66.7902857,61.3861154 66.3145714,61.3861154 L23.8676429,61.3861154 L23.8676429,22.1251154 L67.1787857,22.1251154 L67.1787857,60.5183077 Z M67.1787857,16.9182692 L5.18264286,16.9182692 L5.18264286,6.07465385 C5.18264286,5.59696154 5.57114286,5.20684615 6.04685714,5.20684615 L66.3145714,5.20684615 C66.7902857,5.20684615 67.1787857,5.59696154 67.1787857,6.07465385 L67.1787857,16.9182692 Z M61.6710714,7.51834615 C59.7655714,7.51834615 58.2142143,9.07615385 58.2142143,10.9895769 C58.2142143,12.903 59.7655714,14.4608077 61.6710714,14.4608077 C63.5765714,14.4608077 65.1279286,12.903 65.1279286,10.9895769 C65.1279286,9.07615385 63.5765714,7.51834615 61.6710714,7.51834615 Z M53.0315714,7.51834615 C51.1234286,7.51834615 49.5747143,9.07615385 49.5747143,10.9895769 C49.5747143,12.903 51.1234286,14.4608077 53.0315714,14.4608077 C54.9370714,14.4608077 56.4857857,12.903 56.4857857,10.9895769 C56.4857857,9.07615385 54.9370714,7.51834615 53.0315714,7.51834615 Z M44.3894286,7.51834615 C42.4839286,7.51834615 40.9352143,9.07615385 40.9352143,10.9895769 C40.9352143,12.903 42.4839286,14.4608077 44.3894286,14.4608077 C46.2975714,14.4608077 47.8462857,12.903 47.8462857,10.9895769 C47.8462857,9.07615385 46.2975714,7.51834615 44.3894286,7.51834615 Z" id="Fill-3"></path>
                    </g>
                </g>
            </g>
        </g>
    </g>
</svg>