<?xml version="1.0" encoding="UTF-8"?>
<svg width="60px" height="75px" viewBox="0 0 60 75" version="1.1" xmlns="http://www.w3.org/2000/svg" xmlns:xlink="http://www.w3.org/1999/xlink">
    <!-- Generator: Sketch 50.2 (55047) - http://www.bohemiancoding.com/sketch -->
    <title>Persona@3x</title>
    <desc>Created with Sketch.</desc>
    <defs>
        <polygon id="path-1" points="0 0.304575758 59.5485 0.304575758 59.5485 24.9710502 0 24.9710502"></polygon>
    </defs>
    <g id="Art-board" stroke="none" stroke-width="1" fill="none" fill-rule="evenodd">
        <g id="01.Main_Page_04-01" transform="translate(-693.000000, -5229.000000)">
            <g id="Carriers-Icons" transform="translate(0.000000, 5110.000000)">
                <g id="Icons-Carrier" transform="translate(44.000000, 119.862857)">
                    <g id="Persona" transform="translate(649.000000, 0.000000)">
                        <path d="M14.2309482,26.2828624 L14.4573004,26.2828624 L14.4573004,26.2056168 C14.2309482,25.4483065 13.1796515,21.1323949 16.86295,18.5552679 C19.870952,19.2360899 24.382955,19.3898239 30.5486072,16.7392377 C42.3542631,11.6660158 43.4093198,26.3563215 43.4093198,26.3563215 L43.6356719,26.3563215 C44.8396248,26.3563215 46.1172736,27.3415823 44.7636727,32.036149 C43.711624,35.7462123 42.7332713,36.8079613 42.0549669,36.8079613 C41.3796704,41.2011185 37.9956682,46.8037003 32.4286084,48.7742218 C31.3006077,49.1528769 30.0966549,49.3808274 28.894958,49.3808274 C27.6902532,49.3808274 26.4893084,49.1528769 25.3613077,48.7742218 C19.870952,46.8044576 16.4140057,41.2011185 15.7349492,36.8079613 C14.9829487,36.7307157 14.0045961,35.7492415 13.0262434,32.036149 C11.7485945,27.1908775 13.0262434,26.2828624 14.2309482,26.2828624 Z M9.71894518,32.9449214 C10.1716495,34.459542 10.92365,37.3380786 12.7269472,39.003404 C14.0813001,44.0024094 17.9909507,49.8336989 24.306251,52.1056299 C25.810252,52.6349898 27.390957,52.9394286 29.0446062,52.9394286 C30.6253112,52.9394286 32.2022563,52.6380191 33.7062573,52.1056299 C40.0223095,49.8336989 43.9349681,44.0766258 45.2855611,39.003404 C47.0888583,37.3380786 47.8408588,34.459542 48.2935631,32.9449214 C48.9688595,30.5222856 49.647916,27.1143892 47.8408588,24.6917534 C47.7649067,24.6145078 47.6912107,24.5410487 47.6152586,24.3895866 C47.7649067,23.555788 47.8408588,22.7242612 47.9145548,21.9669509 C50.0209082,7.72875947 42.197847,6.82074439 41.2961984,6.82074439 C41.2202463,6.82074439 41.2202463,6.74425604 41.1465503,6.74425604 C40.2449017,3.03419276 34.9808981,-0.828847208 30.0161908,0.155656215 C25.1342035,1.21513336 14.8325486,0.00192221916 14.8325486,0.00192221916 C14.6829005,2.19736485 16.5629018,3.7119855 16.5629018,3.7119855 C7.91489596,9.01315778 9.49560103,20.3728127 10.3205456,24.3873147 C10.2445935,24.4645603 10.1708975,24.5380194 10.0949454,24.6894815 C8.36459227,27.1151465 9.03988872,30.5230429 9.71894518,32.9449214 Z" id="Fill-1" fill="#FF3B00"></path>
                        <g id="Group-5" transform="translate(0.000000, 48.944000)">
                            <mask id="mask-2" fill="white">
                                <use xlink:href="#path-1"></use>
                            </mask>
                            <g id="Clip-4"></g>
                            <path d="M35.62485,6.96135325 C33.74985,7.6416355 31.7991,7.9458329 29.7741,7.9458329 C27.74985,7.9458329 25.7256,7.56747792 23.8506,6.88795238 C19.95135,5.45096017 16.95135,3.02721818 14.70135,0.304575758 C11.4756,2.04576537 5.8506,5.22319048 -0.00015,9.53643723 C6.6741,18.9173706 17.54835,24.9710502 29.7741,24.9710502 C41.99985,24.9710502 52.87485,18.9173706 59.5491,9.60908139 C53.69835,5.29659134 48.1491,2.11613939 44.84985,0.377976623 C42.6006,3.17780346 39.5241,5.59851861 35.62485,6.96135325 Z" id="Fill-3" fill="#FF3B00" mask="url(#mask-2)"></path>
                        </g>
                    </g>
                </g>
            </g>
        </g>
    </g>
</svg>