<?xml version="1.0" encoding="UTF-8"?>
<svg width="75px" height="77px" viewBox="0 0 75 77" version="1.1" xmlns="http://www.w3.org/2000/svg" xmlns:xlink="http://www.w3.org/1999/xlink">
    <!-- Generator: Sketch 50.2 (55047) - http://www.bohemiancoding.com/sketch -->
    <title>Heart@3x</title>
    <desc>Created with Sketch.</desc>
    <defs>
        <polygon id="path-1" points="0.000327941895 -8.05529954e-05 74.6256398 -8.05529954e-05 74.6256398 76.1225001 0.000327941895 76.1225001"></polygon>
    </defs>
    <g id="Art-board" stroke="none" stroke-width="1" fill="none" fill-rule="evenodd">
        <g id="01.Main_Page_04-01" transform="translate(-683.000000, -5561.000000)">
            <g id="Carriers-Icons" transform="translate(0.000000, 5110.000000)">
                <g id="Heart" transform="translate(683.000000, 451.483429)">
                    <mask id="mask-2" fill="white">
                        <use xlink:href="#path-1"></use>
                    </mask>
                    <g id="Clip-2"></g>
                    <path d="M36.7799194,28.202812 L37.3218548,28.7441281 L37.8541129,28.2124783 L37.8541129,28.2092562 C41.6371774,24.4297097 47.7775,24.4297097 51.5637903,28.2092562 C55.3468548,31.9912194 55.3468548,38.1245244 51.5637903,41.9032654 L38.3678226,55.04307 C38.0904032,55.3201724 37.7162097,55.4740286 37.3250806,55.4740286 C36.9315323,55.4740286 36.5565323,55.3201724 36.2791129,55.04307 L23.0952419,41.8710442 C19.3089516,38.0882756 19.3089516,31.9589982 23.0952419,28.177035 C26.8791129,24.3942664 33.018629,24.3942664 36.8049194,28.177035 L36.7799194,28.202812 Z M26.7468548,4.37362488 L24.9484677,3.6156212 L24.9516935,3.61803779 C23.6379839,3.06141659 22.1508871,3.09605438 20.8654032,3.71309032 C19.5831452,4.32932074 18.6258871,5.46834009 18.2412097,6.8401576 L17.7089516,8.71623687 C17.1041129,10.7389226 15.286371,12.1582664 13.1758871,12.2525134 L11.2226613,12.3499825 C8.58314516,12.4732286 6.5041129,14.6473539 6.49766129,17.2870756 C6.49766129,17.5738442 6.52266129,17.8598074 6.57024194,18.1401318 L6.9008871,20.0564876 L6.9008871,20.0597097 C7.26620968,22.1548931 6.24846774,24.2476599 4.3775,25.2610166 L2.63556452,26.2204028 C1.37830645,26.8970479 0.4775,28.0803714 0.155725806,29.467494 C-0.165241935,30.8554221 0.1275,32.3126258 0.959758065,33.4701724 L2.09685484,35.0812323 L2.09362903,35.0812323 C3.33798387,36.809094 3.33798387,39.1378811 2.09362903,40.8649373 L0.946854839,42.4759972 L0.950080645,42.4759972 C0.112177419,43.6246829 -0.190241935,45.0786645 0.118629032,46.4657871 C0.426693548,47.8504931 1.31862903,49.0402608 2.56298387,49.7257668 L4.27346774,50.6601816 C6.13798387,51.6832046 7.14604839,53.778388 6.77185484,55.8711548 L6.42508065,57.7875106 L6.42508065,57.7907327 C6.37104839,58.079918 6.34604839,58.3731309 6.34604839,58.6687604 C6.34927419,61.2988157 8.41620968,63.4673023 11.0460484,63.6058535 L12.9992742,63.7097668 C15.1258871,63.822541 16.943629,65.2797447 17.5137903,67.3282074 L18.036371,69.2034811 L18.0395968,69.2034811 C18.4242742,70.5688544 19.3783065,71.7046516 20.6573387,72.3216876 C21.9395968,72.9387235 23.4202419,72.9765834 24.7307258,72.4256009 L26.5299194,71.6764581 C28.4984677,70.855623 30.7694355,71.3808286 32.1750806,72.9822221 L33.4662097,74.4490922 C34.4081452,75.5123917 35.7629839,76.1229834 37.1831452,76.1229834 C38.6081452,76.1229834 39.9589516,75.5123917 40.9008871,74.4490922 L42.1992742,72.9918885 L42.1992742,72.9886664 C43.6137903,71.3993558 45.8847581,70.8870387 47.8444355,71.7175401 L49.6428226,72.4755438 C50.9565323,73.0297484 52.443629,72.9951106 53.7291129,72.3780747 C55.0105645,71.7618442 55.968629,70.6228249 56.3533065,69.253424 L56.8855645,67.3781502 L56.8855645,67.3749281 C57.4807258,65.3296876 59.3170161,63.8918166 61.4500806,63.8072359 L63.4033065,63.7186276 C64.8234677,63.6525742 66.1468548,62.9823733 67.0387903,61.8715475 C67.9299194,60.7639438 68.2984677,59.3260728 68.0557258,57.9260618 L67.7250806,56.009706 C67.3597581,53.9137171 68.3775,51.8185336 70.2484677,50.805177 L71.9904032,49.8393465 C73.2476613,49.1627014 74.1484677,47.9793779 74.4694355,46.5922553 C74.7912097,45.2043272 74.4984677,43.7471235 73.6662097,42.589577 L72.5291129,40.9785171 L72.5323387,40.9785171 C71.2879839,39.2506553 71.2879839,36.9218682 72.5323387,35.194812 L73.6791129,33.5837521 L73.6758871,33.5837521 C74.5137903,32.4350664 74.8162097,30.9810848 74.5073387,29.5939622 C74.1984677,28.2092562 73.3073387,27.0194885 72.0629839,26.3339825 L70.3525,25.3995677 C68.4871774,24.3765447 67.4791129,22.2805558 67.8541129,20.1885945 L68.2008871,18.2722387 L68.2008871,18.2690166 C68.2508871,17.9798313 68.2799194,17.6866184 68.2799194,17.3909889 C68.2766935,14.7609336 66.2097581,12.592447 63.5791129,12.4538959 L61.5887903,12.4128138 C59.4621774,12.3032618 57.6444355,10.8460581 57.0710484,8.79759539 L56.5484677,6.92232166 L56.5484677,6.91909954 C56.1605645,5.55372627 55.2065323,4.41792903 53.9275,3.80411521 C52.6484677,3.18707926 51.1645968,3.14921935 49.8541129,3.69697972 L48.0549194,4.44612258 C46.0895968,5.27017972 43.8154032,4.74497419 42.4097581,3.14358065 L41.118629,1.6767106 C40.1766935,0.61018894 38.8250806,-0.000402764977 37.4008871,-0.000402764977 C35.9799194,-0.000402764977 34.6258871,0.61018894 33.6839516,1.6767106 L32.3920161,3.10249862 C30.9807258,4.69180922 28.7097581,5.20412627 26.7468548,4.37362488 Z" id="Fill-1" fill="#FF3B00" mask="url(#mask-2)"></path>
                </g>
            </g>
        </g>
    </g>
</svg>