<svg xmlns="http://www.w3.org/2000/svg" width="880.7" height="237"><style>.st0{fill:#ff3b00}.st2{fill:#fff}.st8{fill:#0a0a0a}</style><g id="Art-board_1_"><g id="_x30_1.Main_x5F_Page_x5F_04-01_1_" transform="translate(-266 -2008)"><g id="Freedom-for-all_1_" transform="translate(266 2008)"><g id="Group-15_1_"><g id="Group-16_1_"><g id="Page-1_1_"><path class="st0" d="M0 .9v104h23.7V67.5h31.9V45.2H23.7v-22H60V.9z" id="Fill-1_1_"/><g id="Group-30_1_"><path class="st0" d="M92.1 24.2v23.2h8.7c9.1 0 16.3-3.3 16.3-12.1 0-5.8-3-11.4-14.5-11.4-3.6 0-5.6.1-10.5.3zm-23.9 82.2V1.8c5.8 0 32.6-.3 35.5-.3 28.5 0 38.7 14.2 38.7 33.5 0 19.4-11.9 27.3-17.6 30.2l30.4 41.2h-29l-25.4-36.6H92v36.6H68.2z" id="Fill-2_1_"/><path class="st0" d="M159.7 1.8h51.5v22.4h-27.6v18.4h23.1V65h-23.1v19h29.1v22.4h-53z" id="Fill-4_1_"/><path class="st0" d="M220.2 1.8h51.5v22.4H244v18.4h23.2V65H244v19h29.2v22.4h-53z" id="Fill-6_1_"/><path class="st0" d="M304.5 24.2V84h1.2c12.5 0 26.3-10.9 26.3-30.8 0-19.3-13.9-29-26.1-29h-1.4zM280.6 1.8h21.1c37.5 0 55.7 23.6 55.7 51.4 0 29.3-24.2 53.2-58.1 53.2h-18.7V1.8z" id="Fill-8_1_"/><path class="st0" d="M418.8 85.7c19.9 0 30.2-14 30.2-31.7 0-19.1-13.3-31.7-30.2-31.7-17.3 0-30.2 12.6-30.2 31.7.1 18 13.5 31.7 30.2 31.7m0-85.7c31.8 0 55.5 20.8 55.5 54.1 0 31.7-23.7 54.1-55.5 54.1s-55.5-20.8-55.5-54.1c0-30.3 22.2-54.1 55.5-54.1" id="Fill-10_1_"/><g id="Group-14_1_" transform="translate(481.772 1.69)"><defs><filter id="Adobe_OpacityMaskFilter" filterUnits="userSpaceOnUse" x="0" y=".1" width="153.8" height="104.6"><feColorMatrix values="1 0 0 0 0 0 1 0 0 0 0 0 1 0 0 0 0 0 1 0"/></filter></defs><mask maskUnits="userSpaceOnUse" x="0" y=".1" width="153.8" height="104.6" id="mask-2_1_"><g filter="url(#Adobe_OpacityMaskFilter)"><path id="path-1_1_" class="st2" d="M0 .1h153.8v104.6H0z"/></g></mask><g id="Fill-12_1_" mask="url(#mask-2_1_)"><path class="st0" d="M0 .1h23.5l40.8 61.1V.1h20.5l69 104.6h-30.2L86.7 45.8v58.9H64.6l-40.7-59v59H0z"/></g></g><g id="Group-17_1_" transform="translate(127.706 123.787)"><defs><filter id="Adobe_OpacityMaskFilter_1_" filterUnits="userSpaceOnUse" x="0" y=".1" width="98.7" height="104.6"><feColorMatrix values="1 0 0 0 0 0 1 0 0 0 0 0 1 0 0 0 0 0 1 0"/></filter></defs><mask maskUnits="userSpaceOnUse" x="0" y=".1" width="98.7" height="104.6" id="mask-4_1_"><g filter="url(#Adobe_OpacityMaskFilter_1_)"><path id="path-3_1_" class="st2" d="M0 .1h98.7v104.5H0z"/></g></mask><g id="Fill-15_1_" mask="url(#mask-4_1_)"><path class="st0" d="M58.2 60.3h16.6V36.4L58.2 60.3zm40.5 44.3H74.8v-22H42.7l-15.1 22H0L75.1.1h23.6v104.5z"/></g></g><path class="st0" d="M235.3 123.9h23.9V206h42.6v22.4h-66.5z" id="Fill-18_1_"/><path class="st0" d="M307.7 123.9h23.9V206h42.5v22.4h-66.4z" id="Fill-20_1_"/><defs><filter id="Adobe_OpacityMaskFilter_2_" filterUnits="userSpaceOnUse" x="0" y="122.9" width="140" height="74.1"><feColorMatrix values="1 0 0 0 0 0 1 0 0 0 0 0 1 0 0 0 0 0 1 0"/></filter></defs><mask maskUnits="userSpaceOnUse" x="0" y="122.9" width="140" height="74.1" id="mask-6_2_"><g filter="url(#Adobe_OpacityMaskFilter_2_)"><path id="path-5_2_" class="st2" d="M0 228.4h635.5V0H0z"/></g></mask><g id="Group-2_1_" mask="url(#mask-6_2_)"><g transform="translate(0 122.685)"><path class="st8" d="M0 1.1h30.9v11.5H12.2v11.3h16.4v11.5H12.2v19.2H0z" id="Fill-22_1_"/><path class="st8" d="M61.8 44.1c10.2 0 15.4-7.2 15.4-16.2 0-9.8-6.8-16.2-15.4-16.2-8.9 0-15.4 6.4-15.4 16.2-.1 9.2 6.8 16.2 15.4 16.2m0-43.9c16.3 0 28.4 10.6 28.4 27.7 0 16.2-12.1 27.7-28.4 27.7S33.4 44.9 33.4 27.9C33.4 12.4 44.7.2 61.8.2" id="Fill-24_1_"/><path class="st8" d="M107.7 12.6v11.8h4.4c4.7 0 8.3-1.7 8.3-6.2 0-3-1.5-5.8-7.4-5.8-1.8 0-2.7.1-5.3.2zm-12.2 42V1.1c3 0 16.6-.2 18.2-.2 14.6 0 19.8 7.3 19.8 17.1 0 9.9-6.1 14-9 15.4L140 54.6h-14.8l-13-18.7h-4.5v18.7H95.5z" id="Fill-26_1_"/><path class="st8" d="M.2 74.3H140v-9.5H.2z" id="Fill-28_1_"/></g></g></g></g><g enable-background="new"><path d="M411.8 228.9v-27.3h15.6v4.5h-10.8v7.7h9.6v4.5h-9.6v10.6h-4.8zM446.4 211.4v17.5h-4.5v-2.1c-1.4 1.7-3.3 2.6-5.6 2.6-1.8 0-3.3-.6-4.4-1.8-1.1-1.2-1.7-3-1.7-5.4v-10.7h4.5v9.8c0 2.7 1.1 4 3.4 4 1.5 0 2.8-.7 3.9-2.1v-11.7h4.4zM451.4 224.1v-22.5h4.5v20.6c0 1.9.5 2.8 1.5 2.8.6 0 1.2-.2 1.8-.7l.9 3.4c-1.2 1-2.8 1.5-4.6 1.5-2.7.1-4.1-1.6-4.1-5.1zM463.1 224.1v-22.5h4.5v20.6c0 1.9.5 2.8 1.5 2.8.6 0 1.2-.2 1.8-.7l.9 3.4c-1.2 1-2.8 1.5-4.6 1.5-2.8.1-4.1-1.6-4.1-5.1zM483 224.1v-22.5h4.5v20.6c0 1.9.5 2.8 1.5 2.8.6 0 1.2-.2 1.8-.7l.9 3.4c-1.2 1-2.8 1.5-4.6 1.5-2.7.1-4.1-1.6-4.1-5.1zM496.2 226.7c-1.8-1.7-2.6-3.9-2.6-6.6 0-2.7.9-4.9 2.6-6.6 1.8-1.7 4.1-2.6 6.9-2.6 2.9 0 5.2.9 6.9 2.6 1.8 1.7 2.6 3.9 2.6 6.6 0 2.7-.9 4.9-2.6 6.6-1.8 1.7-4.1 2.6-6.9 2.6-2.8 0-5.1-.8-6.9-2.6zm2.2-6.6c0 1.5.4 2.7 1.3 3.6.9 1 2 1.4 3.4 1.4s2.6-.5 3.5-1.4c.9-.9 1.3-2.1 1.3-3.6s-.5-2.7-1.4-3.6c-.9-.9-2.1-1.4-3.4-1.4-1.4 0-2.5.5-3.4 1.4-.9.9-1.3 2.1-1.3 3.6zM514.3 231.3c0-1.4.5-2.6 1.5-3.5 1-.9 2.4-1.6 4.2-1.9-.2-.4-.3-.8-.3-1.2 0-.5.1-.9.4-1.2-1.3-.5-2.3-1.3-3.1-2.4s-1.1-2.2-1.1-3.5c0-1.8.7-3.4 2.1-4.7 1.4-1.3 3.2-1.9 5.4-1.9 1.7 0 3.2.4 4.5 1.2l5.3-1.2.2 3.6-2.9.7c.3.7.4 1.5.4 2.3 0 1.8-.7 3.3-2.1 4.6-1.4 1.3-3.2 1.9-5.4 1.9h-.4c-.1.2-.1.4-.1.7 0 .3.1.6.2.9h.2c2.7 0 4.9.5 6.6 1.4 1.7 1 2.5 2.4 2.5 4.3s-.8 3.3-2.5 4.3-3.9 1.4-6.6 1.4c-2.7 0-4.9-.5-6.6-1.4-1.6-1.1-2.4-2.5-2.4-4.4zm4.1 0c0 .7.4 1.2 1.3 1.6.9.4 2.1.6 3.6.6 3.3 0 4.9-.7 4.9-2.1 0-.7-.4-1.2-1.3-1.6-.8-.4-2.1-.6-3.6-.6-1.6 0-2.8.2-3.6.6-.8.3-1.3.8-1.3 1.5zm2.6-15.9c-.6.6-.9 1.3-.9 2.1s.3 1.5.9 2c.6.5 1.4.8 2.4.8s1.7-.3 2.4-.8c.6-.5.9-1.2.9-2.1 0-.9-.3-1.6-.9-2.1-.6-.6-1.4-.8-2.4-.8-1 .1-1.8.3-2.4.9zM536.2 205c0-.8.3-1.4.8-1.9s1.2-.7 2-.7c.7 0 1.3.2 1.8.7.5.5.8 1.1.8 1.9 0 .9-.3 1.5-.8 2s-1.1.8-1.8.8c-.8 0-1.5-.3-2-.8s-.8-1.1-.8-2zm.5 23.9v-17.5h4.5v17.5h-4.5zM555.1 225.2c.4-.3.6-.7.6-1.2s-.3-.9-1-1.3c-.7-.3-1.4-.6-2.4-.9s-1.9-.5-2.8-.9c-.9-.4-1.7-.9-2.4-1.7-.7-.8-1-1.8-1-3 0-1.7.6-3 1.8-3.9 1.2-.9 2.8-1.4 4.6-1.4 2.9 0 5.1.7 6.7 2.2l-1.7 3.2c-1.4-1.1-3-1.7-4.8-1.7-.7 0-1.2.2-1.6.4-.4.3-.6.7-.6 1.1 0 .5.3.9 1 1.3.6.3 1.4.6 2.4.9.9.2 1.9.5 2.8.9.9.3 1.7.9 2.4 1.7.6.8 1 1.7 1 2.9 0 1.7-.6 3.1-1.9 4.1-1.3 1-3 1.5-5.2 1.5-1.5 0-3-.3-4.5-1-1.5-.6-2.4-1.3-2.9-2l2.2-2.9c.5.6 1.3 1.1 2.5 1.5 1.1.4 2.1.7 3 .7.8-.1 1.4-.3 1.8-.5zM563.8 222.2v-15.8h4.5v4.9h5.7v4.2h-5.7v6.4c0 2.1.7 3.2 2.1 3.2.9 0 1.8-.3 2.7-1l1.4 3.5c-1.4 1.1-3.1 1.7-5.2 1.7-1.9 0-3.3-.6-4.2-1.8-.9-1.2-1.3-2.9-1.3-5.3zM578.4 205c0-.8.3-1.4.8-1.9s1.2-.7 2-.7c.7 0 1.3.2 1.8.7.5.5.8 1.1.8 1.9 0 .9-.3 1.5-.8 2s-1.1.8-1.8.8c-.8 0-1.5-.3-2-.8s-.8-1.1-.8-2zm.5 23.9v-17.5h4.5v17.5h-4.5zM602.3 223l2.1 3.3c-.7 1-1.7 1.7-2.9 2.3-1.2.5-2.6.8-4 .8-2.9 0-5.2-.8-6.9-2.5-1.7-1.7-2.6-3.9-2.6-6.7 0-2.6.9-4.8 2.6-6.6 1.7-1.8 3.9-2.7 6.5-2.7 3.1 0 5.5.8 7.1 2.4l-2.1 3.5c-1.2-1.1-2.6-1.7-4.4-1.7-1.3 0-2.4.5-3.4 1.4-1 .9-1.5 2.1-1.5 3.6s.5 2.7 1.5 3.6c1 .9 2.2 1.4 3.6 1.4 1.6.1 3.1-.7 4.4-2.1zM609.4 215.9l-1.1-3.3c1.9-1.1 4-1.7 6.2-1.7 2.5 0 4.3.6 5.4 1.8 1.1 1.2 1.6 3 1.6 5.5v10.7h-3.9v-2c-1.1 1.5-2.8 2.3-5.2 2.3-1.6 0-3-.5-4-1.4-1-1-1.5-2.3-1.5-3.9 0-1.8.6-3.3 1.8-4.2 1.2-1 2.7-1.5 4.6-1.5 1.6 0 2.9.4 4 1.1.1-1.5-.2-2.7-.7-3.4-.5-.7-1.4-1.1-2.6-1.1-1.3-.1-2.9.3-4.6 1.1zm4.4 9.5c1.5 0 2.6-.5 3.4-1.6V222c-.8-.6-1.8-.9-3.1-.9-.8 0-1.5.2-2 .6-.5.4-.8.9-.8 1.6 0 .7.2 1.2.7 1.5s1.1.6 1.8.6zM626 224.1v-22.5h4.5v20.6c0 1.9.5 2.8 1.5 2.8.6 0 1.2-.2 1.8-.7l.9 3.4c-1.2 1-2.8 1.5-4.6 1.5-2.7.1-4.1-1.6-4.1-5.1zM646.2 205c0-.8.3-1.4.8-1.9s1.2-.7 2-.7c.7 0 1.3.2 1.8.7.5.5.8 1.1.8 1.9 0 .9-.3 1.5-.8 2s-1.1.8-1.8.8c-.8 0-1.5-.3-2-.8s-.8-1.1-.8-2zm.4 23.9v-17.5h4.5v17.5h-4.5zM656.8 228.9v-17.5h4.5v1.8c1.3-1.4 3-2.1 5-2.1 4.8 0 7.2 2.5 7.2 7.6V229H669v-9.5c0-2.8-1.3-4.1-3.9-4.1-1.4 0-2.7.6-3.8 1.7v12h-4.5zM690.3 228.9v-1.8c-1.4 1.4-3 2.1-5 2.1-2.5 0-4.5-.8-6-2.4-1.5-1.6-2.3-3.8-2.3-6.5 0-2.8.9-5 2.7-6.8s4.1-2.6 6.9-2.6c1.5 0 2.7.3 3.7.9v-10.2h4.5v27.3h-4.5zm-4.1-3.9c1.5 0 2.9-.6 4.1-1.8v-7.1c-1.1-.7-2.3-1.1-3.5-1.1-1.4 0-2.6.4-3.6 1.3s-1.5 2.1-1.5 3.7c0 1.5.4 2.7 1.3 3.6.9 1 1.9 1.4 3.2 1.4zM713.5 224l1.3 3.2c-1.7 1.5-4 2.2-6.7 2.2-2.8 0-5.1-.8-6.8-2.5-1.7-1.7-2.6-3.9-2.6-6.7 0-2.6.8-4.8 2.5-6.6 1.7-1.8 3.9-2.6 6.7-2.6 2.3 0 4.3.8 5.9 2.3 1.6 1.5 2.4 3.5 2.4 5.9 0 1-.1 1.8-.3 2.4h-12.7c.2 1.3.8 2.3 1.7 3 1 .7 2.1 1.1 3.5 1.1 2.1-.1 3.8-.6 5.1-1.7zm-5.8-9.3c-2.5 0-4.1 1.3-4.6 3.8h8.6c0-1.1-.3-2-1.1-2.7-.6-.8-1.6-1.1-2.9-1.1zM719.9 236.7v-25.3h4.5v1.7c.6-.6 1.3-1.1 2.3-1.5 1-.4 2-.6 3.1-.6 2.4 0 4.3.8 5.8 2.5s2.2 3.8 2.2 6.4c0 2.7-.9 5-2.6 6.8s-4 2.7-6.7 2.7c-1.7 0-3.1-.3-4.1-.9v8.2h-4.5zm8.5-21.6c-1.5 0-2.9.6-4 1.9v7.1c1 .7 2.3 1 3.7 1 1.5 0 2.7-.5 3.6-1.5.9-1 1.3-2.2 1.3-3.7 0-1.4-.4-2.6-1.2-3.5-.8-.8-2-1.3-3.4-1.3zM755.4 224l1.3 3.2c-1.7 1.5-4 2.2-6.7 2.2-2.8 0-5.1-.8-6.8-2.5-1.7-1.7-2.6-3.9-2.6-6.7 0-2.6.8-4.8 2.5-6.6 1.7-1.8 3.9-2.6 6.7-2.6 2.3 0 4.3.8 5.9 2.3 1.6 1.5 2.4 3.5 2.4 5.9 0 1-.1 1.8-.3 2.4h-12.7c.2 1.3.8 2.3 1.7 3 1 .7 2.1 1.1 3.5 1.1 2.1-.1 3.8-.6 5.1-1.7zm-5.8-9.3c-2.5 0-4.1 1.3-4.6 3.8h8.6c0-1.1-.3-2-1.1-2.7-.6-.8-1.6-1.1-2.9-1.1zM761.8 228.9v-17.5h4.5v1.8c1.3-1.4 3-2.1 5-2.1 4.8 0 7.2 2.5 7.2 7.6V229H774v-9.5c0-2.8-1.3-4.1-3.9-4.1-1.4 0-2.7.6-3.8 1.7v12h-4.5zM795.3 228.9v-1.8c-1.4 1.4-3 2.1-5 2.1-2.5 0-4.5-.8-6-2.4-1.5-1.6-2.3-3.8-2.3-6.5 0-2.8.9-5 2.7-6.8s4.1-2.6 6.9-2.6c1.5 0 2.7.3 3.7.9v-10.2h4.5v27.3h-4.5zm-4.1-3.9c1.5 0 2.9-.6 4.1-1.8v-7.1c-1.1-.7-2.3-1.1-3.5-1.1-1.4 0-2.6.4-3.6 1.3s-1.5 2.1-1.5 3.7c0 1.5.4 2.7 1.3 3.6.9 1 1.9 1.4 3.2 1.4zM818.5 224l1.3 3.2c-1.7 1.5-4 2.2-6.7 2.2-2.8 0-5.1-.8-6.8-2.5-1.7-1.7-2.6-3.9-2.6-6.7 0-2.6.8-4.8 2.5-6.6 1.7-1.8 3.9-2.6 6.7-2.6 2.3 0 4.3.8 5.9 2.3 1.6 1.5 2.4 3.5 2.4 5.9 0 1-.1 1.8-.3 2.4h-12.7c.2 1.3.8 2.3 1.7 3 1 .7 2.1 1.1 3.5 1.1 2.1-.1 3.8-.6 5.1-1.7zm-5.8-9.3c-2.5 0-4.1 1.3-4.6 3.8h8.6c0-1.1-.3-2-1.1-2.7-.6-.8-1.6-1.1-2.9-1.1zM824.9 228.9v-17.5h4.5v1.8c1.3-1.4 3-2.1 5-2.1 4.8 0 7.2 2.5 7.2 7.6V229h-4.5v-9.5c0-2.8-1.3-4.1-3.9-4.1-1.4 0-2.7.6-3.8 1.7v12h-4.5zM859.5 223l2.1 3.3c-.7 1-1.7 1.7-2.9 2.3-1.2.5-2.6.8-4 .8-2.9 0-5.2-.8-6.9-2.5-1.7-1.7-2.6-3.9-2.6-6.7 0-2.6.9-4.8 2.6-6.6 1.7-1.8 3.9-2.7 6.5-2.7 3.1 0 5.5.8 7.1 2.4l-2.1 3.5c-1.2-1.1-2.6-1.7-4.4-1.7-1.3 0-2.4.5-3.4 1.4-1 .9-1.5 2.1-1.5 3.6s.5 2.7 1.5 3.6c1 .9 2.2 1.4 3.6 1.4 1.5.1 3.1-.7 4.4-2.1zM878 224l1.3 3.2c-1.7 1.5-4 2.2-6.7 2.2-2.8 0-5.1-.8-6.8-2.5-1.7-1.7-2.6-3.9-2.6-6.7 0-2.6.8-4.8 2.5-6.6 1.7-1.8 3.9-2.6 6.7-2.6 2.3 0 4.3.8 5.9 2.3 1.6 1.5 2.4 3.5 2.4 5.9 0 1-.1 1.8-.3 2.4h-12.7c.2 1.3.8 2.3 1.7 3 1 .7 2.1 1.1 3.5 1.1 2.1-.1 3.8-.6 5.1-1.7zm-5.8-9.3c-2.5 0-4.1 1.3-4.6 3.8h8.6c0-1.1-.3-2-1.1-2.7-.7-.8-1.6-1.1-2.9-1.1z"/></g></g></g></g></g></g></svg>