<?xml version="1.0" encoding="UTF-8"?>
<svg width="202px" height="73px" viewBox="0 0 202 73" version="1.1" xmlns="http://www.w3.org/2000/svg" xmlns:xlink="http://www.w3.org/1999/xlink">
    <!-- Generator: Sketch 50.2 (55047) - http://www.bohemiancoding.com/sketch -->
    <title>Freedom for all smal shippers</title>
    <desc>Created with Sketch.</desc>
    <defs>
        <polygon id="path-1" points="0.00286697086 0.0628851719 48.8425212 0.0628851719 48.8425212 33.401848 0.00286697086 33.401848"></polygon>
        <polygon id="path-3" points="0.00758118951 0.0544766657 31.350452 0.0544766657 31.350452 33.395859 0.00758118951 33.395859"></polygon>
        <polygon id="path-5" points="0 72.8634369 201.869286 72.8634369 201.869286 0.0306724083 0 0.0306724083"></polygon>
    </defs>
    <g id="Art-board" stroke="none" stroke-width="1" fill="none" fill-rule="evenodd">
        <g id="01.Main_Page_04-01" transform="translate(-42.000000, -2505.000000)">
            <g id="Freedom-for-all-smal-shippers" transform="translate(42.000000, 2505.000000)">
                <polygon id="Fill-1" fill="#FFFFFF" points="0 0 0 33 7.50407651 33 7.50407651 21.1208382 17.5909376 21.1208382 17.5909376 14.0496235 7.50407651 14.0496235 7.50407651 7.07121473 19 7.07121473 19 0"></polygon>
                <g id="Group-30">
                    <path d="M29.2585654,7.74524125 L29.2585654,15.1280234 L32.0107398,15.1280234 C34.9014263,15.1280234 37.177842,14.0815496 37.177842,11.2717976 C37.177842,9.41173572 36.2293354,7.65148204 32.5798437,7.65148204 C31.4416359,7.65148204 30.8243539,7.6968494 29.2585654,7.74524125 Z M21.6705133,33.9403566 L21.6705133,0.601393834 C23.5223593,0.601393834 32.0107398,0.504610127 32.9592463,0.504610127 C42.0137196,0.504610127 45.2386418,5.03227295 45.2386418,11.1750139 C45.2386418,17.3661467 41.4446157,19.8915966 39.6439589,20.7959193 L49.3157142,33.9403566 L40.1167066,33.9403566 L32.0559068,22.2718709 L29.2585654,22.2718709 L29.2585654,33.9403566 L21.6705133,33.9403566 Z" id="Fill-2" fill="#FFFFFF"></path>
                    <polygon id="Fill-4" fill="#FFFFFF" points="50.730645 0.601998732 67.090124 0.601998732 67.090124 7.74584615 58.3186971 7.74584615 58.3186971 13.604285 65.6658587 13.604285 65.6658587 20.7481324 58.3186971 20.7481324 58.3186971 26.7971141 67.5628717 26.7971141 67.5628717 33.9409615 50.730645 33.9409615"></polygon>
                    <polygon id="Fill-6" fill="#FFFFFF" points="69.9293202 0.601998732 86.2887992 0.601998732 86.2887992 7.74584615 77.5173723 7.74584615 77.5173723 13.604285 84.8645339 13.604285 84.8645339 20.7481324 77.5173723 20.7481324 77.5173723 26.7971141 86.7615469 26.7971141 86.7615469 33.9409615 69.9293202 33.9409615"></polygon>
                    <path d="M96.714843,7.74524125 L96.714843,26.7965092 L97.0942456,26.7965092 C101.074962,26.7965092 105.438092,23.3183447 105.438092,16.9850608 C105.438092,10.8423199 101.029795,7.74524125 97.1424237,7.74524125 L96.714843,7.74524125 Z M89.1267909,0.601393834 L95.8145146,0.601393834 C107.714507,0.601393834 113.498892,8.1263271 113.498892,16.9850608 C113.498892,26.3216641 105.817494,33.9403566 95.0557094,33.9403566 L89.1267909,33.9403566 L89.1267909,0.601393834 Z" id="Fill-8" fill="#FFFFFF"></path>
                    <path d="M133.030899,27.3690453 C139.336209,27.3690453 142.609309,22.8927988 142.609309,17.2702703 C142.609309,11.1759212 138.387703,7.17451983 133.030899,7.17451983 C127.529561,7.17451983 123.449478,11.1759212 123.449478,17.2702703 C123.449478,22.9865581 127.719263,27.3690453 133.030899,27.3690453 M133.030899,0.0306724083 C143.130235,0.0306724083 150.667098,6.65128291 150.667098,17.2702703 C150.667098,27.3690453 143.130235,34.5128927 133.030899,34.5128927 C122.931563,34.5128927 115.391689,27.8922822 115.391689,17.2702703 C115.391689,7.60399753 122.455804,0.0306724083 133.030899,0.0306724083" id="Fill-10" fill="#FFFFFF"></path>
                    <g id="Group-14" transform="translate(153.026765, 0.539114)">
                        <mask id="mask-2" fill="white">
                            <use xlink:href="#path-1"></use>
                        </mask>
                        <g id="Clip-13"></g>
                        <polygon id="Fill-12" fill="#FFFFFF" mask="url(#mask-2)" points="0.00286697086 0.0628851719 7.44939588 0.0628851719 20.4394184 19.5406063 20.4394184 0.0628851719 26.9344297 0.0628851719 48.8434246 33.401848 39.2650144 33.401848 27.5517117 14.6379066 27.5517117 33.401848 20.5327635 33.401848 7.59091908 14.5895148 7.59091908 33.401848 0.00286697086 33.401848"></polygon>
                    </g>
                    <g id="Group-17" transform="translate(40.563505, 39.467578)">
                        <mask id="mask-4" fill="white">
                            <use xlink:href="#path-3"></use>
                        </mask>
                        <g id="Clip-16"></g>
                        <path d="M18.5019526,19.2509202 L23.765411,19.2509202 L23.765411,11.6292032 L18.5019526,19.2509202 Z M31.350452,33.3964639 L23.765411,33.3964639 L23.765411,26.3917431 L13.5697188,26.3917431 L8.77900809,33.3964639 L0.00758118951,33.3964639 L23.8587561,0.0544766657 L31.350452,0.0544766657 L31.350452,33.3964639 Z" id="Fill-15" fill="#FFFFFF" mask="url(#mask-4)"></path>
                    </g>
                    <polygon id="Fill-18" fill="#FFFFFF" points="74.7534544 39.5232643 82.3415065 39.5232643 82.3415065 65.7183797 95.8524549 65.7183797 95.8524549 72.8622271 74.7534544 72.8622271"></polygon>
                    <polygon id="Fill-20" fill="#FFFFFF" points="97.7425423 39.5232643 105.327583 39.5232643 105.327583 65.7183797 118.841543 65.7183797 118.841543 72.8622271 97.7425423 72.8622271"></polygon>
                    <mask id="mask-6" fill="white">
                        <use xlink:href="#path-5"></use>
                    </mask>
                    <g id="Clip-29"></g>
                    <g id="Group-2" mask="url(#mask-6)" fill="#FF3B00">
                        <g transform="translate(0.000000, 39.116423)">
                            <polygon id="Fill-22" points="0 0.393533834 9.82532302 0.393533834 9.82532302 4.0471188 3.88134887 4.0471188 3.88134887 7.6523119 9.09662913 7.6523119 9.09662913 11.3089214 3.88134887 11.3089214 3.88134887 17.4486378 0 17.4486378"></polygon>
                            <path d="M19.6208358,14.0847991 C22.845758,14.0847991 24.5199473,11.7952595 24.5199473,8.92199317 C24.5199473,5.80374309 22.3609658,3.75616278 19.6208358,3.75616278 C16.8054276,3.75616278 14.7217244,5.80374309 14.7217244,8.92199317 C14.7217244,11.8466758 16.904795,14.0847991 19.6208358,14.0847991 M19.6208358,0.0995533219 C24.787938,0.0995533219 28.6451978,3.48698309 28.6451978,8.92199317 C28.6451978,14.0847991 24.787938,17.7414085 19.6208358,17.7414085 C14.4537337,17.7414085 10.5964739,14.3539788 10.5964739,8.92199317 C10.5964739,3.97392612 14.209832,0.0995533219 19.6208358,0.0995533219" id="Fill-24"></path>
                            <path d="M34.219405,4.04863104 L34.219405,7.82319564 L35.6256035,7.82319564 C37.1040692,7.82319564 38.2693772,7.28786076 38.2693772,5.8512276 C38.2693772,4.89851297 37.784585,3.9972147 35.9176833,3.9972147 C35.3365349,3.9972147 35.020366,4.02141062 34.219405,4.04863104 Z M30.3380561,17.4501501 L30.3380561,0.395046079 C31.2835515,0.395046079 35.6256035,0.343629735 36.1103957,0.343629735 C40.7445276,0.343629735 42.3946278,2.65736524 42.3946278,5.80283574 C42.3946278,8.96947768 40.4554589,10.2609353 39.5310415,10.7236824 L44.4813421,17.4501501 L39.7749431,17.4501501 L35.6496926,11.4798051 L34.219405,11.4798051 L34.219405,17.4501501 L30.3380561,17.4501501 Z" id="Fill-26"></path>
                            <polygon id="Fill-28" points="0.0481781086 23.7299004 44.462372 23.7299004 44.462372 20.7054096 0.0481781086 20.7054096"></polygon>
                        </g>
                    </g>
                </g>
            </g>
        </g>
    </g>
</svg>