<?xml version="1.0" encoding="UTF-8"?>
<svg width="124px" height="30px" viewBox="0 0 124 30" version="1.1" xmlns="http://www.w3.org/2000/svg" xmlns:xlink="http://www.w3.org/1999/xlink">
    <!-- Generator: Sketch 50.2 (55047) - http://www.bohemiancoding.com/sketch -->
    <title>Page 1@3x</title>
    <desc>Created with Sketch.</desc>
    <defs>
        <polygon id="path-1" points="0.12957504 0.187791946 16.885824 0.187791946 16.885824 17.1923557 0.12957504 17.1923557"></polygon>
        <polygon id="path-3" points="0 0.0888926174 29.2756659 0.0888926174 29.2756659 29.7986577 0 29.7986577"></polygon>
    </defs>
    <g id="Art-board" stroke="none" stroke-width="1" fill="none" fill-rule="evenodd">
        <g id="01.Main_Page_04-01-Copy" transform="translate(-154.000000, -35.000000)">
            <g id="Menu" transform="translate(125.000000, 0.000000)">
                <g id="Page-1" transform="translate(29.000000, 35.000000)">
                    <g>
                        <path d="M52.3197267,16.4305369 L54.0261651,12.3010067 L55.7326035,16.4305369 L52.3197267,16.4305369 Z M55.8704915,6.78261745 L52.1818387,6.78261745 L45.3009299,23.3371812 L49.6056147,23.3371812 L50.9223955,20.13 L57.1344979,20.13 L58.4774675,23.3371812 L62.7515987,23.3371812 L55.8704915,6.78261745 Z" id="Fill-1" fill="#FEFEFE"></path>
                        <g id="Group-18" transform="translate(0.000000, 0.112550)">
                            <path d="M66.0441062,10.3697315 L69.1066086,10.3697315 C70.3509734,10.3697315 71.0364454,10.9795973 71.0364454,12.0877852 C71.0364454,13.2455034 70.3870822,13.8324161 69.1066086,13.8324161 L66.0441062,13.8324161 L66.0441062,10.3697315 Z M71.7082278,17.0508725 C73.7084966,16.3202013 74.9717094,14.4700671 74.9717094,12.0877852 C74.9717094,8.89771812 72.6357478,6.67006711 69.2907238,6.67006711 L62.1616166,6.67006711 L62.1616166,23.2246309 L66.0441062,23.2246309 L66.0441062,17.5322819 L67.5676198,17.5322819 L71.3598374,23.2246309 L76.0416806,23.2246309 L71.7082278,17.0508725 Z" id="Fill-2" fill="#FEFEFE"></path>
                            <g id="Group-6" transform="translate(106.937600, 6.241611)">
                                <mask id="mask-2" fill="white">
                                    <use xlink:href="#path-1"></use>
                                </mask>
                                <g id="Clip-5"></g>
                                <path d="M8.50780864,0.187791946 C3.88072384,0.187791946 0.12957504,3.99436913 0.12957504,8.69027517 C0.12957504,13.3857785 3.88072384,17.1923557 8.50780864,17.1923557 C13.1348934,17.1923557 16.8858438,13.3857785 16.8858438,8.69027517 C16.8858438,3.99436913 13.1348934,0.187791946 8.50780864,0.187791946 M8.50780864,4.06081208 C11.0229254,4.06081208 13.069223,6.13765772 13.069223,8.69027517 C13.069223,11.2426913 11.0229254,13.3193356 8.50780864,13.3193356 C5.99249344,13.3193356 3.94619584,11.2426913 3.94619584,8.69027517 C3.94619584,6.13765772 5.99249344,4.06081208 8.50780864,4.06081208" id="Fill-4" fill="#FEFEFE" mask="url(#mask-2)"></path>
                            </g>
                            <g id="Group-9">
                                <mask id="mask-4" fill="white">
                                    <use xlink:href="#path-3"></use>
                                </mask>
                                <g id="Clip-8"></g>
                                <path d="M29.1478963,13.0084228 L25.2874291,13.0084228 C25.3981363,13.6372148 25.4590451,14.2831208 25.4590451,14.9437248 C25.4590451,20.9992953 20.6045939,25.9255369 14.6377139,25.9255369 C8.67103232,25.9255369 3.81658112,20.9992953 3.81658112,14.9437248 C3.81658112,8.8883557 8.67103232,3.96191275 14.6377139,3.96191275 C17.0008563,3.96191275 19.1880179,4.73647651 20.9696499,6.04600671 L19.1239347,7.76466443 C20.2105715,8.46553691 21.1285683,9.41144295 21.7987635,10.5284899 L26.4575923,6.18432886 C23.7948659,2.49010067 19.4935539,0.0888926174 14.6377139,0.0888926174 C6.55350912,0.0888926174 -3.968e-05,6.73963087 -3.968e-05,14.9437248 C-3.968e-05,23.1478188 6.55350912,29.7987584 14.6377139,29.7987584 C22.7221171,29.7987584 29.2756659,23.1478188 29.2756659,14.9437248 C29.2756659,14.287349 29.2292403,13.6422483 29.1478963,13.0084228" id="Fill-7" fill="#FEFEFE" mask="url(#mask-4)"></path>
                            </g>
                            <path d="M18.7436218,16.9485503 C17.9936698,18.524255 16.393177,19.6082819 14.5482554,19.5720403 C12.1698362,19.5255302 10.1784954,17.5511678 10.0802874,15.1390872 C9.97275456,12.4980805 12.0587322,10.3147248 14.6377338,10.3147248 C16.4449594,10.3147248 18.0057722,11.3888859 18.7436218,12.9390201 C18.7585018,12.9700268 18.735289,13.0074765 18.7011642,13.0074765 L14.7730426,13.0074765 L14.7730426,16.8802953 L18.7013626,16.8802953 C18.735289,16.8802953 18.7585018,16.9175436 18.7436218,16.9485503 M19.1753402,12.9649933 L21.7964026,10.5245235 C20.2453114,7.94271141 17.3766458,6.26532886 14.138361,6.45620134 C10.0287034,6.69821477 6.64757056,10.0231812 6.29223616,14.1851275 C5.83155136,19.5790872 10.3382074,24.0400268 15.6864762,23.3812349 C19.0719738,22.9644564 21.9049274,20.4253289 22.7493178,17.0719732 C23.1078266,15.6488859 23.086201,14.2761342 22.7951482,13.0084832 L19.1918074,13.0084832 C19.1693882,13.0084832 19.1586746,12.9802953 19.1753402,12.9649933" id="Fill-10" fill="#FF3B00"></path>
                            <path d="M86.9300512,16.9365503 C86.1799008,18.512255 84.5796064,19.5962819 82.7346848,19.5600403 C80.3562656,19.5135302 78.3649248,17.5391678 78.2665184,15.1270872 C78.159184,12.4860805 80.2451616,10.3025235 82.8241632,10.3025235 C84.6311904,10.3025235 86.1922016,11.3768859 86.9300512,12.9270201 C86.9449312,12.9580268 86.9217184,12.9954765 86.8875936,12.9954765 L82.959472,12.9954765 L82.959472,16.8682953 L86.887792,16.8682953 C86.9217184,16.8682953 86.9449312,16.9055436 86.9300512,16.9365503 M87.3615712,12.9529933 L89.9826336,10.5125235 C88.4317408,7.93071141 85.5630752,6.25332886 82.3247904,6.44420134 C78.2149344,6.68621477 74.834,10.0111812 74.4786656,14.1731275 C74.0179808,19.5670872 78.5244384,24.0280268 83.8727072,23.3692349 C87.2584032,22.9524564 90.0913568,20.4131275 90.9357472,17.0597718 C91.2940576,15.6368859 91.2726304,14.2641342 90.9815776,12.9962819 L87.3782368,12.9962819 C87.3558176,12.9962819 87.345104,12.9682953 87.3615712,12.9529933" id="Fill-12" fill="#FEFEFE"></path>
                            <path d="M103.235396,16.9365503 C102.485444,18.512255 100.884952,19.5962819 99.0400301,19.5600403 C96.6616109,19.5135302 94.6702701,17.5391678 94.5720621,15.1270872 C94.4643309,12.4860805 96.5505069,10.3025235 99.1295085,10.3025235 C100.936734,10.3025235 102.497547,11.3768859 103.235396,12.9270201 C103.250276,12.9580268 103.227064,12.9954765 103.192939,12.9954765 L99.2648173,12.9954765 L99.2648173,16.8682953 L103.193137,16.8682953 C103.227064,16.8682953 103.250276,16.9055436 103.235396,16.9365503 M103.666916,12.9529933 L106.288177,10.5125235 C104.737086,7.93071141 101.86842,6.25332886 98.6301357,6.44420134 C94.5204781,6.68621477 91.1393453,10.0111812 90.7840109,14.1731275 C90.3233261,19.5670872 94.8299821,24.0280268 100.178251,23.3692349 C103.563748,22.9524564 106.396702,20.4131275 107.241092,17.0597718 C107.599601,15.6368859 107.577976,14.2641342 107.286923,12.9962819 L103.683582,12.9962819 C103.661163,12.9962819 103.650449,12.9682953 103.666916,12.9529933" id="Fill-14" fill="#FEFEFE"></path>
                            <path d="M44.1014234,16.8887718 C43.3754778,18.4709195 41.7979994,19.5728658 39.9677594,19.5728658 C37.4524442,19.5728658 35.4061466,17.4964228 35.4061466,14.9438054 C35.4061466,12.3911879 37.4524442,10.3145436 39.9677594,10.3145436 C41.7950234,10.3145436 43.370121,11.4130671 44.0976538,12.9911879 L46.9857626,10.3020604 C45.4904218,7.97836913 42.9066586,6.44132215 39.9677594,6.44132215 C35.3406746,6.44132215 31.5897242,10.2481007 31.5897242,14.9438054 C31.5897242,19.6395101 35.3406746,23.4460872 39.9677594,23.4460872 C42.9096346,23.4460872 45.4953818,21.9060201 46.9901274,19.578302 L44.1014234,16.8887718 Z" id="Fill-16" fill="#FEFEFE"></path>
                        </g>
                    </g>
                </g>
            </g>
        </g>
    </g>
</svg>