<svg id="Слой_1" data-name="Слой 1" xmlns="http://www.w3.org/2000/svg" viewBox="0 0 546.79 148.09"><defs><style>.cls-1{fill:#2a2a28;}.cls-2{fill:#e63a2b;}</style></defs><title>logotype</title><path class="cls-1" d="M86.69,0H35A35,35,0,0,0,0,35V113.1a35,35,0,0,0,35,35h51.7a35,35,0,0,0,35-35V35A35,35,0,0,0,86.69,0Zm27.76,56.72A29.5,29.5,0,0,1,85,86.22H36.73a29.5,29.5,0,0,1-29.5-29.5V36.51A29.5,29.5,0,0,1,36.73,7H85a29.5,29.5,0,0,1,29.5,29.5Z"/><path class="cls-2" d="M83.28,31.78A65.58,65.58,0,0,1,61,27.87l-3.24-1a62.71,62.71,0,0,0-26.36-2.3,21.48,21.48,0,0,0-4.36,12.14A64.78,64.78,0,0,1,51,36.66,5.89,5.89,0,0,1,55.14,35H66.55a5.92,5.92,0,0,1,5.92,5.92,3.4,3.4,0,0,0,.31,1.41,62.42,62.42,0,0,0,19.71.2,6.68,6.68,0,0,0,2.16-4.91,21.57,21.57,0,0,0-1.07-6.7A64.72,64.72,0,0,1,83.28,31.78Z"/><path class="cls-2" d="M58.49,24.68l3.28,1a62.94,62.94,0,0,0,30.94,3A21.61,21.61,0,0,0,73,16H48.66a21.53,21.53,0,0,0-14.92,6A65,65,0,0,1,58.49,24.68Z"/><path class="cls-2" d="M49.22,47.8V40.91a5.88,5.88,0,0,1,.43-2.18A62.52,62.52,0,0,0,27,39.06V48.2A64.79,64.79,0,0,1,49.22,47.8Z"/><path class="cls-2" d="M71.25,55.88a5.89,5.89,0,0,1-4.7,2.36H55.14a5.92,5.92,0,0,1-5.92-5.92V50.13A62.53,62.53,0,0,0,27,50.54v5.07a21.59,21.59,0,0,0,.91,6.19,65,65,0,0,1,30.54,1.9l3.28,1a63.06,63.06,0,0,0,28.92,3.33A21.49,21.49,0,0,0,94.63,56a64.75,64.75,0,0,1-11.35,1A65,65,0,0,1,71.25,55.88Z"/><path class="cls-2" d="M94.34,53.72a6.7,6.7,0,0,0-6.42-4.83h-12a3.43,3.43,0,0,0-3.43,3.43,5.88,5.88,0,0,1-.19,1.41A62.43,62.43,0,0,0,94.34,53.72Z"/><path class="cls-2" d="M61,66.9l-3.24-1A62.69,62.69,0,0,0,28.72,64,21.62,21.62,0,0,0,48.66,77.23H73a21.54,21.54,0,0,0,15.59-6.67c-1.78.15-3.56.25-5.35.25A65.58,65.58,0,0,1,61,66.9Z"/><path class="cls-1" d="M160.47,51.58l.24-.21a4.33,4.33,0,0,1,.47-.39,5.18,5.18,0,0,1,.53-.27l.22-.11.46-.09.44-.09a3.75,3.75,0,0,1,1,0c.19,0,.38.07.56.11l.36.08.74.33.34.3.34.3a2.5,2.5,0,0,1,.44.6,6.35,6.35,0,0,1,.27.74v.42a4.05,4.05,0,0,0,1.48,2.95,5.57,5.57,0,0,0,3.57,1.23c2.74,0,5.05-1.92,5.05-4.2a8.66,8.66,0,0,0-.21-1.64l-.09-.5a6.79,6.79,0,0,0-.25-1l-.07-.23a11.74,11.74,0,0,0-1.75-2.9A10.6,10.6,0,0,0,173,45.41,11.69,11.69,0,0,0,171,44.06a13.42,13.42,0,0,0-3.47-1.45,6.77,6.77,0,0,0-1.42-.33,16.45,16.45,0,0,0-5.27-.06,12.62,12.62,0,0,0-1.4.26,17.65,17.65,0,0,0-2.33.81,8.77,8.77,0,0,0-.93.41l-.37.18A13.2,13.2,0,0,0,153,46a13.36,13.36,0,0,0-1.5,1.73,13.31,13.31,0,0,0-1,1.86,7,7,0,0,0-.38,1l-.07.21a12.73,12.73,0,0,0-.31,2.13,3.93,3.93,0,0,0,0,.83c0,.12,0,.24,0,.37V66.37a11.2,11.2,0,0,0,.7,4.85,11.82,11.82,0,0,0,1.76,2.91l.31.33a14.12,14.12,0,0,0,1.3,1.26c.43.32.89.62,1.33.91l.58.38a12.39,12.39,0,0,0,1.18.57,14,14,0,0,0,2.31.81,6.36,6.36,0,0,0,.94.23l.43.09h.08a22.89,22.89,0,0,0,2.65.2,21.85,21.85,0,0,0,2.65-.21l.38-.07a6.21,6.21,0,0,0,1-.23,12.14,12.14,0,0,0,2.33-.81,8.21,8.21,0,0,0,1.26-.61,15.62,15.62,0,0,0,1.91-1.28,14.2,14.2,0,0,0,1.28-1.25l.32-.34a11.4,11.4,0,0,0,1.72-2.71l.48-1.46a10,10,0,0,0,.31-2.33c0-2.32-2.27-4.2-5.05-4.2s-5,1.88-5.05,4.2V68a4.75,4.75,0,0,1-.26.79,2.45,2.45,0,0,1-.45.62c-.22.23-.45.42-.56.53l-.78.4a7.64,7.64,0,0,1-1,.18,3.48,3.48,0,0,1-.95,0c-.33,0-.6-.09-.81-.14l-.5-.24-.37-.16c-.22-.18-.43-.36-.6-.53l-.49-.65c0-.12-.09-.24-.12-.36s-.09-.29-.15-.42V53a6.26,6.26,0,0,1,.22-.73Z"/><path class="cls-1" d="M218.93,42.53a5.93,5.93,0,0,0-3.92-.38l-.58.18-.63.21A4.64,4.64,0,0,0,212,44.09l-.45.8-.45.8-1.07,2.06L209,49.81c-.51.94-1,1.88-1.49,2.81l-1.4,2.65-.11-.19-1.13-2.16c-.67-1.29-1.34-2.57-2-3.84-.36-.7-.73-1.39-1.11-2.09s-.74-1.39-1.11-2.1a6.67,6.67,0,0,0-.43-.78l-.76-.78a4.86,4.86,0,0,0-2.2-1.06,5.65,5.65,0,0,0-3.87.39A4.32,4.32,0,0,0,191,45.21c-.06.3-.12.65-.19,1.07a3.31,3.31,0,0,0,.64,2l.62,1.15c.21.39.42.78.63,1.18.9,1.79,1.86,3.58,2.81,5.37.54,1,1.07,2,1.59,3s1,2,1.56,2.95.88,1.67,1.32,2.5l.61,1.15-.35.67-.45.87c-.72,1.34-1.43,2.69-2.14,4.05a13.62,13.62,0,0,0-.84,1.54c-.09.16-.17.31-.25.47l-.27.53a4,4,0,0,0,0,2.15v0a4.66,4.66,0,0,0,2.35,2.5,5.67,5.67,0,0,0,2.48.57,5.51,5.51,0,0,0,1.4-.18l.57-.18.63-.21a5.4,5.4,0,0,0,1.83-1.55c.15-.28.29-.54.42-.8s.27-.52.42-.79l1.07-2.06,1.07-2.06.7-1.28c.78-1.45,1.56-2.88,2.29-4.33l3.22-6.1c.52-1,1-1.91,1.52-2.85l1.51-2.83c.71-1.32,1.41-2.64,2.12-4,.1-.2.2-.39.31-.6s.33-.62.45-.91l.13-.21a4.31,4.31,0,0,0,.38-.71,3.22,3.22,0,0,0,0-2.24A4.53,4.53,0,0,0,218.93,42.53Z"/><path class="cls-1" d="M276.75,42.13c-2.79,0-5.05,1.88-5.05,4.2V70.48H263.6V46.33c0-2.32-2.27-4.2-5.05-4.2s-5,1.92-5,4.2V70.48h-8.16V46.33c0-2.32-2.27-4.2-5.05-4.2s-5,1.92-5,4.2V74.68c0,2.25,2.29,4.15,5,4.15h36.42c2.71,0,5-1.9,5-4.15V46.33C281.74,44.05,279.46,42.13,276.75,42.13Z"/><path class="cls-1" d="M316.89,49.93c2.62,0,4.75-1.77,4.75-4s-2.13-3.9-4.75-3.9H300.41c-2.62,0-4.75,1.75-4.75,3.9V75c0,2.14,2.18,4,4.75,4h16.24c2.58,0,4.75-1.81,4.75-4s-2.18-4-4.75-4H305.16V65.08H316c2.62,0,4.75-1.75,4.75-3.9s-2.13-4-4.75-4H305.16V49.93Z"/><path class="cls-1" d="M363.49,63.74a6.67,6.67,0,0,0-.44-1.16l-.13-.25a12.16,12.16,0,0,0-.94-1.67l-1.17-1.37c-.29-.31-.58-.6-.9-.9a6.07,6.07,0,0,0,.42-.6,11.72,11.72,0,0,0,1-1.89,4.29,4.29,0,0,0,.39-1.18,8.7,8.7,0,0,0,.31-2.18,9.09,9.09,0,0,0-.3-2.2,5,5,0,0,0-.4-1.21l-.13-.26a12,12,0,0,0-.91-1.62,8.92,8.92,0,0,0-1.46-1.63,4.58,4.58,0,0,0-.75-.69l-.24-.19a12.61,12.61,0,0,0-2-1.24,14.34,14.34,0,0,0-2.36-.9c-.42-.1-.85-.2-1.41-.31a21.84,21.84,0,0,0-2.57-.2h-8.89c-2.74,0-5.05,1.9-5.05,4.15V67.88c0,1,0,2,0,3s0,2,0,3v.84a3.85,3.85,0,0,0,1.48,3,5.57,5.57,0,0,0,3.57,1.23h8.54a17.22,17.22,0,0,0,2.18-.18l.65-.08a15.69,15.69,0,0,0,3.81-1,16.81,16.81,0,0,0,3.24-1.81,12.47,12.47,0,0,0,2.49-2.48c.25-.31.49-.61.75-1a11.26,11.26,0,0,0,.91-1.91,3.77,3.77,0,0,0,.39-1.18,8.78,8.78,0,0,0,.31-2.19,7.28,7.28,0,0,0-.06-1.18A12.34,12.34,0,0,0,363.49,63.74Zm-17.86,4.57c0-.54,0-1.08,0-1.63V63h2.18c.43,0,.86,0,1.36,0h.79c.41.1.81.19,1.16.25s.73.33,1,.46l.24.19a3.89,3.89,0,0,1,.62.57,4.37,4.37,0,0,1,.53.69l.41,1.1v1l-.28.92-.13.19a4.37,4.37,0,0,1-.53.68l0,0a3.75,3.75,0,0,1-.58.53l-.15.13c-.34.19-.73.38-1,.48l-1.21.28a12,12,0,0,1-1.24,0h-3.09V70C345.66,69.41,345.64,68.86,345.63,68.31ZM352,52.77l-.14.55a3.11,3.11,0,0,1-.28.37l-.08.1a3.92,3.92,0,0,1-.42.4l-.32.16c-.1.05-.21.11-.19.11l-.64.13H345.6V50.43h4.31a3.11,3.11,0,0,1,.53.14l.63.26.18.17.24.22a3.06,3.06,0,0,0,.21.26l.13.16.17.65A.93.93,0,0,1,352,52.77Z"/><path class="cls-1" d="M388.61,51.58l.24-.21a4.32,4.32,0,0,1,.47-.39,5.19,5.19,0,0,1,.53-.27l.22-.11.46-.09.44-.09a3.75,3.75,0,0,1,1,0c.19,0,.38.07.56.11l.36.08.74.33.34.3.34.3a2.5,2.5,0,0,1,.44.6,6.32,6.32,0,0,1,.27.74v.42a4.05,4.05,0,0,0,1.48,2.95A5.57,5.57,0,0,0,400,57.48c2.74,0,5.05-1.92,5.05-4.2a8.65,8.65,0,0,0-.21-1.64l-.09-.5a6.78,6.78,0,0,0-.25-1l-.07-.23A11.74,11.74,0,0,0,402.7,47a10.6,10.6,0,0,0-1.59-1.58,11.69,11.69,0,0,0-1.93-1.35,13.42,13.42,0,0,0-3.47-1.45,6.78,6.78,0,0,0-1.42-.33,16.45,16.45,0,0,0-5.27-.06,12.63,12.63,0,0,0-1.4.26,17.66,17.66,0,0,0-2.33.81,8.77,8.77,0,0,0-.93.41l-.37.18A13.2,13.2,0,0,0,381.13,46a13.35,13.35,0,0,0-1.5,1.73,13.3,13.3,0,0,0-1,1.86,7,7,0,0,0-.38,1l-.07.21a12.72,12.72,0,0,0-.31,2.13,3.93,3.93,0,0,0,0,.83c0,.12,0,.24,0,.37V66.37a11.2,11.2,0,0,0,.69,4.85,11.82,11.82,0,0,0,1.76,2.91l.31.33a14.12,14.12,0,0,0,1.3,1.26c.43.32.89.62,1.33.91l.58.38a12.39,12.39,0,0,0,1.18.57,14,14,0,0,0,2.31.81,6.36,6.36,0,0,0,.94.23l.43.09h.08a22.89,22.89,0,0,0,2.65.2,21.85,21.85,0,0,0,2.65-.21l.38-.07a6.21,6.21,0,0,0,1-.23,12.14,12.14,0,0,0,2.33-.81,8.21,8.21,0,0,0,1.26-.61A15.62,15.62,0,0,0,401,75.71a14.2,14.2,0,0,0,1.28-1.25l.32-.34a11.4,11.4,0,0,0,1.72-2.71l.48-1.46a10,10,0,0,0,.31-2.33c0-2.32-2.27-4.2-5.05-4.2s-5,1.88-5.05,4.2V68a4.73,4.73,0,0,1-.26.79,2.44,2.44,0,0,1-.45.62c-.22.23-.45.42-.56.53l-.78.4a7.65,7.65,0,0,1-1,.18,3.48,3.48,0,0,1-.94,0c-.33,0-.6-.09-.81-.14l-.5-.24L389.3,70c-.22-.18-.43-.36-.6-.53l-.49-.65c0-.12-.09-.24-.12-.36s-.09-.29-.15-.42V53a6.28,6.28,0,0,1,.22-.73Z"/><path class="cls-1" d="M443.12,58.05l2-2.64c1.23-1.7,2.46-3.36,3.75-5.1.48-.6,1-1.26,1.38-1.85a3.42,3.42,0,0,0,.58-3.09,4.38,4.38,0,0,0-2.34-2.64,6.26,6.26,0,0,0-3.89-.44,5.42,5.42,0,0,0-3,1.91l-.89,1.24-.89,1.23-2,2.63-2,2.63-1.42,1.89c-.78,1-1.57,2.08-2.34,3.15h-3V46.23c0-2.25-2.31-4.15-5.05-4.15S419,44,419,46.23v28.5c0,2.25,2.31,4.15,5.05,4.15s5.05-1.9,5.05-4.15v-9.4h3.21l.05.07c.06.09.13.17.21.3l1.59,2.11c.84,1.11,1.66,2.2,2.47,3.3l1,1.32c.85,1.13,1.7,2.25,2.54,3.42.17.2.33.41.48.6l.28.37a5.46,5.46,0,0,0,3,1.94,6,6,0,0,0,3.83-.44,4.4,4.4,0,0,0,2.38-2.64,3.4,3.4,0,0,0-.57-3.1c-.33-.42-.63-.85-.94-1.28s-.63-.88-1-1.4c-1.35-1.75-2.69-3.5-4-5.26-.48-.65-1-1.3-1.47-1.94L440.9,61c.09-.12.16-.24.22-.35Z"/><path class="cls-1" d="M495.17,42.24a7.08,7.08,0,0,0-2.64,0l-.14,0-.49.19-.52.21a4,4,0,0,0-1.83,1.45c-.35.44-.7.87-1.13,1.33L487,47.14l-1.44,1.69-4,4.81c-.77.89-1.53,1.8-2.29,2.7s-1.52,1.82-2.31,2.71l-2,2.35V46.33c0-2.28-2.29-4.2-5-4.2s-5.05,1.88-5.05,4.2v28.3a4.47,4.47,0,0,0,3.69,4,5.36,5.36,0,0,0,2.68,0l.58-.19.6-.2a4.8,4.8,0,0,0,1.8-1.49l.53-.64.53-.64c1-1.15,2-2.29,2.94-3.44.66-.79,1.33-1.59,2-2.38s1.34-1.59,2-2.38l6.6-7.81V74.68c0,2.28,2.29,4.2,5,4.2s5.05-1.88,5.05-4.2V46.28A4.49,4.49,0,0,0,495.17,42.24Z"/><path class="cls-1" d="M543.07,42.24a7.12,7.12,0,0,0-2.76,0l-1,.4a4,4,0,0,0-1.83,1.45c-.35.44-.7.87-1.13,1.33l-6.86,8.19-6.6,7.76V46.33c0-2.28-2.29-4.2-5-4.2s-5.05,1.88-5.05,4.2v28.3a4.47,4.47,0,0,0,3.69,4,5.32,5.32,0,0,0,2.71,0l1.15-.38a4.79,4.79,0,0,0,1.79-1.48l1.06-1.28c1-1.15,2-2.29,2.93-3.44l10.6-12.58V74.68c0,2.28,2.29,4.2,5,4.2s5.05-1.88,5.05-4.2V46.28A4.49,4.49,0,0,0,543.07,42.24Z"/><path class="cls-1" d="M516.4,35c.11.19.23.37.39.68a3.87,3.87,0,0,0,1.4,1.18,43.53,43.53,0,0,0,4.44,1.31c1.36.27,2.85.49,4.56.66q1.21.09,2.43.09a34.47,34.47,0,0,0,5.77-.49,26.4,26.4,0,0,0,5.3-1.33,2.76,2.76,0,0,1,.63-.21l.19-.06a4.08,4.08,0,0,0,1.4-1.17,2.89,2.89,0,0,0,.34-2.5,3.79,3.79,0,0,0-1.83-1.94l-.35-.11c-.13,0-.26-.07-.47-.15a4.35,4.35,0,0,0-2.19,0,29.1,29.1,0,0,1-5.85,1.4,35.3,35.3,0,0,1-5.53,0A26,26,0,0,1,521.56,31l-.42-.12a4,4,0,0,0-2.05,0,3.91,3.91,0,0,0-2.3,1.45,2.69,2.69,0,0,0-.42,2.51Z"/><path class="cls-1" d="M217.17,114.11,217,114h-.19a1.41,1.41,0,0,0-.42.08l-.15,0s-.13-.12-.13-.74q0-.24,0-.88t0-1a10.19,10.19,0,0,0-.49-3.6,2.86,2.86,0,0,0-2.79-2,6.15,6.15,0,0,0-3.12,1c0-.09,0-.19,0-.31l.1-.75-4.45,1.6.36,1.39.47-.15a.9.9,0,0,1,.94.11.58.58,0,0,1,.22.42c.1,1.27.15,2.78.15,4.51,0,.1,0,.54-.28,2.39l-.1.8.74-.32A6.19,6.19,0,0,0,210,115.3l.12-.13V115q0-.83-.06-2.57t-.06-2.59a2.9,2.9,0,0,1,.25-1.56,1.89,1.89,0,0,1,1.4-.37,1.37,1.37,0,0,1,1.22.59,2.77,2.77,0,0,1,.44,1.52l.11,6.71,4.55-1.65-.42-.51Q217.35,114.28,217.17,114.11Z"/><path class="cls-1" d="M235.44,114.16c-.43.14-.47.12-.63.07q-.1-3.31-.1-3.48,0-.53.07-1.56t.08-1.61v-1.93l-.63.25q-1.25.49-1.89.7l-.32.11.07,6.6a.94.94,0,0,1-.42.87,1.89,1.89,0,0,1-1.13.31,2,2,0,0,1-1.41-.54,1.64,1.64,0,0,1-.59-1.28v-7L224,107.32l1,1.17.28-.09a1,1,0,0,1,.59-.07l-.07,4.5a3.75,3.75,0,0,0,.88,2.66,3.37,3.37,0,0,0,2.62,1,6.74,6.74,0,0,0,2.79-.81,3.93,3.93,0,0,1,.08.5l0,.59,4.48-1.49-1-1.23Z"/><path class="cls-1" d="M254,114.16a1.19,1.19,0,0,1-.63.08q0-6.15,0-6.67v-1.93l-.63.25q-1.25.49-1.89.7l-.32.11.07,6.6a.94.94,0,0,1-.42.87,1.89,1.89,0,0,1-1.13.31,2,2,0,0,1-1.41-.54,1.64,1.64,0,0,1-.59-1.28v-7l-4.54,1.66,1,1.17.28-.09a1,1,0,0,1,.59-.07l-.07,4.5a3.75,3.75,0,0,0,.88,2.66,3.37,3.37,0,0,0,2.62,1,6.93,6.93,0,0,0,2.91-.87,3.27,3.27,0,0,0,1.55.89l.1,2.55,2.52-1.78v-2.82l-.84-.35Z"/><path class="cls-1" d="M272.35,114.16a1.19,1.19,0,0,1-.63.08q0-6.15,0-6.67v-1.93l-.63.25q-1.25.49-1.89.7l-.32.11.07,6.6a.94.94,0,0,1-.42.87,1.89,1.89,0,0,1-1.13.31,2,2,0,0,1-1.41-.54,1.64,1.64,0,0,1-.59-1.28v-7l-4.54,1.66,1,1.17.28-.09a1,1,0,0,1,.59-.07l-.07,4.5a3.75,3.75,0,0,0,.88,2.66,3.37,3.37,0,0,0,2.62,1,6.93,6.93,0,0,0,2.91-.87,3.27,3.27,0,0,0,1.55.89l.1,2.55,2.52-1.78v-2.82l-.84-.35Z"/><path class="cls-1" d="M287.53,114.2l-.18,0a1.06,1.06,0,0,1,0-.14v-5.7a2.27,2.27,0,0,0-1.07-1.93,3.49,3.49,0,0,0-2-.63,5.42,5.42,0,0,0-4.1,1.91l-.31.33,1,.95.32-.24a4.51,4.51,0,0,1,1.08-.52,3.57,3.57,0,0,1,1.07-.29,2.74,2.74,0,0,1,1.3.17c.06,0,.26.27.25,1.12v.08a5.34,5.34,0,0,0-3.4,1.17,4,4,0,0,0-1.62,3.23,3.53,3.53,0,0,0,.32,1.74,1.85,1.85,0,0,0,1.75.84,4.72,4.72,0,0,0,2.09-.68c.37-.2.63-.33.82-.41,0,.21,0,.43,0,.68l0,.41h.95l.13-.11a2.51,2.51,0,0,1,.79-.42l1.46-.46-.27-1.19ZM283,111.9a2.54,2.54,0,0,1,1.86-.67v1.86a2.11,2.11,0,0,1-1.09.75,7.85,7.85,0,0,1-1.41.33l-.13-.16c0-.09,0-.26,0-.49A2,2,0,0,1,283,111.9Z"/><path class="cls-1" d="M339.19,114.11a3.18,3.18,0,0,1-1.24.35,2.46,2.46,0,0,1-2.32-1.13,5.77,5.77,0,0,1-.58-2.89,3.94,3.94,0,0,1,.24-1.74c.07-.13.28-.53,1.27-.53a4.71,4.71,0,0,1,1.06.18,5.68,5.68,0,0,0,1.31.21c.62,0,1.18-.45,1.67-1.32l.23-.42-.43-.22a6.14,6.14,0,0,0-2.78-.78,4.63,4.63,0,0,0-3.8,1.82,6.27,6.27,0,0,0-1.32,4,5.47,5.47,0,0,0,1,3.41,3.93,3.93,0,0,0,3.28,1.5c1.41,0,2.85-.81,4.28-2.41l1.67-1.86-2.22,1.14Z"/><path class="cls-1" d="M356.5,107.71c.08.18.32.72.83.72a1.57,1.57,0,0,0,.41-.07.86.86,0,0,1,.2,0c.06,0,.11,0,.15.07a15.06,15.06,0,0,1-1.29,2.48c-.52.89-.94,1.58-1.26,2.06-.53-1.08-1-2.14-1.48-3.16a18.9,18.9,0,0,0-2.21-3.75l-.21-.27-4.06,1.45.2.46c.08.18.32.72.82.72a1.68,1.68,0,0,0,.53-.12,1.63,1.63,0,0,1,.24-.07,1.88,1.88,0,0,1,.6.43l0,.08.14,0c.08,0,.52.4,1.83,3.18.73,1.53,1.31,2.86,1.73,4a10.12,10.12,0,0,1-2,2.28,27.27,27.27,0,0,1-2.65,2.28l-2.49,1.79,2.89-1c.08,0,.41.05,1.17.74l.18.16.23-.05a3.2,3.2,0,0,0,1.4-1,19.51,19.51,0,0,0,2.21-2.83c.33-.5.91-1.5,1.77-3,.54-.87,1-1.52,1.27-2,.63-1,1.28-2.11,1.93-3.36,1.23-2.34,1.38-3.18,1.39-3.6v-.66l-4.75,1.61Z"/><path class="cls-1" d="M384.59,114.51a1.63,1.63,0,0,0-.43.08l-.18,0c-.19,0-.2,0-.22-.12s-.07-1.36-.07-7.38a3.61,3.61,0,0,1,.07-.76l.19-.87-.82.35a10.47,10.47,0,0,0-2.05,1.15l-.19.14,0,7c0,.18-.22.36-.4.47a1.7,1.7,0,0,1-.85.27,1.85,1.85,0,0,1-1.24-.39,1.29,1.29,0,0,1-.43-1.06l0-7.58-.58.15a5.07,5.07,0,0,0-2.1,1l-.16.14.1,7a4.93,4.93,0,0,1-.64.34,2.55,2.55,0,0,1-.8.29c-.43,0-1.74,0-1.74-3.39q0-.85,0-2.54t0-2.51v-.65l-4.45,1.57.2.46c.08.18.32.72.82.72a1.53,1.53,0,0,0,.44-.08c.11,0,.16,0,.21,0a.36.36,0,0,1,.06.24c0,1.4,0,3,0,4.84a3.65,3.65,0,0,0,1,2.53,3.33,3.33,0,0,0,2.51,1,3.62,3.62,0,0,0,1.9-.67,8.94,8.94,0,0,1,.94-.56,2,2,0,0,1,.51.37,4.32,4.32,0,0,0,.76.58,3.2,3.2,0,0,0,1.44.28,4.22,4.22,0,0,0,1.87-.41l.88-.42q0,.22,0,.44l0,.62,4.34-1.44-.21-.47C385.35,115.06,385.11,114.51,384.59,114.51Z"/><path class="cls-1" d="M402.47,114.16c-.42.14-.47.12-.63.07q-.1-3.31-.1-3.48,0-.53.07-1.56t.08-1.61v-1.93l-.63.25q-1.25.49-1.89.7l-.32.11.07,6.6a.94.94,0,0,1-.42.87,1.89,1.89,0,0,1-1.13.31,2,2,0,0,1-1.41-.54,1.64,1.64,0,0,1-.59-1.28v-7L391,107.32l1,1.17.28-.09a1,1,0,0,1,.59-.07l-.07,4.5a3.75,3.75,0,0,0,.88,2.66,3.37,3.37,0,0,0,2.62,1,6.74,6.74,0,0,0,2.79-.81,3.89,3.89,0,0,1,.08.5l0,.59,4.48-1.49-1-1.23Z"/><path class="cls-1" d="M455.7,110.91l.14-.22a3.18,3.18,0,0,0,.34-1.68,2.69,2.69,0,0,0-1.5-2.55,3.25,3.25,0,0,0-2.75,0h0l0-.63-4.33,1.56.36,1.39.47-.15a.9.9,0,0,1,.94.11.58.58,0,0,1,.22.42c.1,1.27.15,2.79.15,4.51,0,.1,0,.54-.28,2.39l-.1.81.75-.32a7.66,7.66,0,0,0,1.51-.81q1.29,1,3.83.34a2.33,2.33,0,0,0,1.26-1.06,3.54,3.54,0,0,0,.33-1.75A3,3,0,0,0,455.7,110.91Zm-1.84,1.35c.53.26.8.54.8.83a1.26,1.26,0,0,1-.11.67,1.71,1.71,0,0,1-.82.51c-.19.08-.66.09-1.65-.6l0-1.8A4.16,4.16,0,0,1,453.86,112.27Zm.32-3.66a1,1,0,0,1-.07.78,1.11,1.11,0,0,1-.62.47,3.44,3.44,0,0,1-1.18.13l-.3,0v-.52q0-.6,0-1.2a2,2,0,0,1,1.41-.24C454.08,108.2,454.16,108.51,454.18,108.61Z"/><path class="cls-1" d="M468.63,105.83a5,5,0,0,0-2.29.51,4.87,4.87,0,0,0-2.37,2.2,8.37,8.37,0,0,0-.44,3.18,5.41,5.41,0,0,0,1.06,3.54,4.27,4.27,0,0,0,3.45,1.4,4.32,4.32,0,0,0,3.4-1.92,5.9,5.9,0,0,0,1.38-3.64,6.63,6.63,0,0,0-.87-3.6A3.75,3.75,0,0,0,468.63,105.83Zm.16,8.66a2.35,2.35,0,0,1-2.1-1.16,4.61,4.61,0,0,1-.7-2.59,5,5,0,0,1,.25-2,1.23,1.23,0,0,1,1.29-.69h.07a3.19,3.19,0,0,1,.87.13l.58.24a6.8,6.8,0,0,1,.8,1.32,4.81,4.81,0,0,1,.2,1.61,6.74,6.74,0,0,1-.28,2.07C469.46,114.5,469,114.5,468.79,114.5Z"/><path class="cls-1" d="M490.34,114.87a25.89,25.89,0,0,1-4.7-4.52A11.45,11.45,0,0,1,486.8,109l1.59-1.64.1-.11.38-2.38-.91.67-1,.73a5.08,5.08,0,0,1-1.06.48l-.35.12,0,.37a2.52,2.52,0,0,1,0,.27,2,2,0,0,1-.72,1.5l-1.28.89,0-4.22-4.18,1.52.22.46c.09.19.34.71.81.71a1.23,1.23,0,0,0,.49-.13l.14-.05a.15.15,0,0,1,.08,0l0,1.12q0,1,0,1.06a40.51,40.51,0,0,1-.46,5.73l-.08.53h1.16l.12-.08q.93-.64,1.42-.95l.21-.14v-3.63c.26.31.62.71,1.12,1.22l2,2.07a12.61,12.61,0,0,1,.86,1.33l.28.54.45-.41a.67.67,0,0,1,.33-.16,2.2,2.2,0,0,0,.73-.21q.61-.37.92-.6l.5-.36Z"/><circle class="cls-1" cx="311.23" cy="111.88" r="4.96"/><circle class="cls-1" cx="426.09" cy="112.35" r="4.96"/></svg>