<?xml version="1.0" encoding="UTF-8"?>
<svg width="124px" height="30px" viewBox="0 0 124 30" version="1.1" xmlns="http://www.w3.org/2000/svg" xmlns:xlink="http://www.w3.org/1999/xlink">
    <!-- Generator: Sketch 50.2 (55047) - http://www.bohemiancoding.com/sketch -->
    <title>logo copy@3x</title>
    <desc>Created with Sketch.</desc>
    <defs>
        <polygon id="path-1" points="7.78015448e-21 0.226903846 7.78015448e-21 29.4226731 29.0520519 29.4226731 29.0520519 0.226903846"></polygon>
    </defs>
    <g id="Art-board" stroke="none" stroke-width="1" fill="none" fill-rule="evenodd">
        <g id="01.Main_Page_04-01" transform="translate(-658.000000, -10056.000000)">
            <g id="Page-1-Copy" transform="translate(658.000000, 10056.000000)">
                <g>
                    <path d="M119.768959,15.18675 C119.768959,17.7257885 117.7132,19.7911731 115.1867,19.7911731 C112.6602,19.7911731 110.605015,17.7257885 110.605015,15.18675 C110.605015,12.6477115 112.6602,10.5823269 115.1867,10.5823269 C117.7132,10.5823269 119.768959,12.6477115 119.768959,15.18675 M115.1867,6.79598077 C110.5832,6.79598077 106.837941,10.5598269 106.837941,15.18675 C106.837941,19.8136731 110.5832,23.5775192 115.1867,23.5775192 C119.790774,23.5775192 123.536033,19.8136731 123.536033,15.18675 C123.536033,10.5598269 119.790774,6.79598077 115.1867,6.79598077" id="Fill-1" fill="#231F20"></path>
                    <path d="M97.9059222,13.2818654 L97.9059222,17.0676346 L102.983607,17.0676346 C102.259126,18.6812885 100.648848,19.7682115 98.8175519,19.7682115 C96.2973667,19.7682115 94.2473481,17.7074423 94.2473481,15.17475 C94.2473481,12.6426346 96.2973667,10.5818654 98.8175519,10.5818654 C100.038033,10.5818654 101.185607,11.0595577 102.049015,11.92725 L103.380867,13.2657115 L106.04457,10.5887885 L104.712144,9.25032692 C103.138033,7.66782692 101.044385,6.79609615 98.8175519,6.79609615 C94.2203667,6.79609615 90.4797,10.55475 90.4797,15.17475 C90.4797,19.7953269 94.2203667,23.5539808 98.8175519,23.5539808 C103.414737,23.5539808 107.15483,19.7953269 107.15483,15.17475 L107.15483,13.2818654 L97.9059222,13.2818654 Z" id="Fill-3" fill="#231F20"></path>
                    <path d="M81.54705,13.2818654 L81.54705,17.0676346 L86.6247352,17.0676346 C85.9002537,18.6812885 84.2894019,19.7682115 82.4586796,19.7682115 C79.9384944,19.7682115 77.8884759,17.7074423 77.8884759,15.17475 C77.8884759,12.6426346 79.9384944,10.5818654 82.4586796,10.5818654 C83.6791611,10.5818654 84.8267352,11.0595577 85.6901426,11.92725 L87.0219944,13.2657115 L89.6856981,10.5887885 L88.3532722,9.25032692 C86.778587,7.66782692 84.685513,6.79609615 82.4586796,6.79609615 C77.8609204,6.79609615 74.1208278,10.55475 74.1208278,15.17475 C74.1208278,19.7953269 77.8609204,23.5539808 82.4586796,23.5539808 C87.0558648,23.5539808 90.7959574,19.7953269 90.7959574,15.17475 L90.7959574,13.2818654 L81.54705,13.2818654 Z" id="Fill-5" fill="#231F20"></path>
                    <path d="M14.5261407,10.6437692 C12.0398259,10.6437692 10.017363,12.6762692 10.017363,15.1749231 C10.017363,17.6735769 12.0398259,19.7060769 14.5261407,19.7060769 C16.2994556,19.7060769 17.8632333,18.6733846 18.5957519,17.1295385 L13.5536593,17.1295385 L13.5536593,13.2203077 L18.9579926,13.2203077 L17.7145481,11.9712692 C16.8626222,11.1151154 15.7305481,10.6437692 14.5261407,10.6437692 M14.5261407,23.6153077 C9.89508519,23.6153077 6.12743704,19.8289615 6.12743704,15.1749231 C6.12743704,10.5208846 9.89508519,6.73453846 14.5261407,6.73453846 C16.7690481,6.73453846 18.8787704,7.61203846 20.464937,9.20607692 L21.8404185,10.5889615 L19.2220667,13.2203077 L22.9248444,13.2203077 L22.9248444,15.1749231 C22.9248444,19.8289615 19.1571963,23.6153077 14.5261407,23.6153077" id="Fill-7" fill="#EF4A24"></path>
                    <g id="Group-11" transform="translate(0.000000, 0.349962)">
                        <mask id="mask-2" fill="white">
                            <use xlink:href="#path-1"></use>
                        </mask>
                        <g id="Clip-10"></g>
                        <path d="M25.2849778,12.9319038 L25.2849778,14.8247885 C25.2849778,20.7867115 20.458163,25.6374808 14.5256815,25.6374808 C8.59377407,25.6374808 3.76753333,20.7867115 3.76753333,14.8247885 C3.76753333,8.86286538 8.59377407,4.01325 14.5256815,4.01325 C16.7749037,4.01325 18.8857741,4.68190385 20.6872185,5.95632692 L18.9822185,7.66978846 C19.512663,8.00440385 20.0109593,8.40017308 20.4650519,8.85651923 L21.8405333,10.2388269 L26.146663,5.91132692 L24.7975889,4.50305769 C22.054663,1.74536538 18.4064222,0.226903846 14.5256815,0.226903846 C6.51677407,0.226903846 -0.000114814815,6.77555769 -0.000114814815,14.8247885 C-0.000114814815,22.8745962 6.51677407,29.4226731 14.5256815,29.4226731 C22.535737,29.4226731 29.0520519,22.8745962 29.0520519,14.8247885 L29.0520519,12.9319038 L25.2849778,12.9319038 Z" id="Fill-9" fill="#231F20" mask="url(#mask-2)"></path>
                    </g>
                    <path d="M52.0584722,16.5430962 L53.7588796,12.4677115 L55.4598611,16.5430962 L52.0584722,16.5430962 Z M55.5970648,7.02155769 L51.9212685,7.02155769 L45.0633796,23.3588654 L49.3540093,23.3588654 L50.6657685,20.1938654 L56.8565833,20.1938654 L58.19475,23.3588654 L62.4543796,23.3588654 L55.5970648,7.02155769 Z" id="Fill-12" fill="#231F20"></path>
                    <path d="M65.7359019,10.6727885 L68.7876796,10.6727885 C70.0282537,10.6727885 70.7108278,11.2745192 70.7108278,12.3683654 C70.7108278,13.5106731 70.0638463,14.0899038 68.7876796,14.0899038 L65.7359019,14.0899038 L65.7359019,10.6727885 Z M71.3807722,17.2664423 C73.3739574,16.5452885 74.6329019,14.7193269 74.6329019,12.3683654 C74.6329019,9.22009615 72.3044574,7.02144231 68.9713833,7.02144231 L61.8666426,7.02144231 L61.8666426,23.35875 L65.7359019,23.35875 L65.7359019,17.74125 L67.2543278,17.74125 L71.0334574,23.35875 L75.6989574,23.35875 L71.3807722,17.2664423 Z" id="Fill-14" fill="#231F20"></path>
                    <path d="M43.8465148,17.1282115 L43.3143481,17.8718654 C42.4543852,19.0735962 41.0622556,19.7912885 39.5914778,19.7912885 C37.0649778,19.7912885 35.0092185,17.7259038 35.0092185,15.1868654 C35.0092185,12.6478269 37.0649778,10.5818654 39.5914778,10.5818654 C40.8797,10.5818654 42.1151074,11.1316731 42.9831074,12.0905192 L43.5956444,12.7678269 L46.3827741,10.2207115 L45.770237,9.54340385 C44.1903852,7.79763462 41.9382926,6.79609615 39.5914778,6.79609615 C34.9874037,6.79609615 31.2421444,10.5599423 31.2421444,15.1868654 C31.2421444,19.8132115 34.9874037,23.5776346 39.5914778,23.5776346 C42.2712556,23.5776346 44.8063667,22.2709038 46.3724407,20.0826346 L46.9046074,19.3389808 L43.8465148,17.1282115 Z" id="Fill-16" fill="#231F20"></path>
                </g>
            </g>
        </g>
    </g>
</svg>