<?xml version="1.0" encoding="UTF-8"?>
<svg width="31px" height="44px" viewBox="0 0 31 44" version="1.1" xmlns="http://www.w3.org/2000/svg" xmlns:xlink="http://www.w3.org/1999/xlink">
    <!-- Generator: Sketch 50.2 (55047) - http://www.bohemiancoding.com/sketch -->
    <title>placeholder@3x</title>
    <desc>Created with Sketch.</desc>
    <defs></defs>
    <g id="Art-board" stroke="none" stroke-width="1" fill="none" fill-rule="evenodd">
        <g id="01.Main_Page_04-01-Copy" transform="translate(-971.000000, -8660.000000)" fill="#FF4300">
            <g id="Contacts" transform="translate(-8.000000, 8474.000000)">
                <path d="M1005.46392,190.513001 C1002.53569,187.605114 998.643507,186 994.503771,186 C990.358983,186 986.467813,187.605114 983.538574,190.513001 C978.123674,195.899874 977.448707,206.030773 982.082543,212.170985 L994.503771,230 L1006.90075,212.195092 C1011.55479,206.030773 1010.87983,195.899874 1005.46392,190.513001 Z M994.645231,206.893597 C991.52401,206.893597 988.985807,204.370414 988.985807,201.267664 C988.985807,198.167926 991.52401,195.644744 994.645231,195.644744 C997.763421,195.644744 1000.30162,198.167926 1000.30162,201.267664 C1000.30162,204.370414 997.763421,206.893597 994.645231,206.893597 Z" id="placeholder"></path>
            </g>
        </g>
    </g>
</svg>